<?xml version="1.0" standalone="no"?>
<!DOCTYPE svg PUBLIC "-//W3C//DTD SVG 20010904//EN"
 "http://www.w3.org/TR/2001/REC-SVG-20010904/DTD/svg10.dtd">
<svg version="1.0" xmlns="http://www.w3.org/2000/svg"
 width="300.000000pt" height="180.000000pt" viewBox="0 0 300.000000 180.000000"
 preserveAspectRatio="xMidYMid meet">
<metadata>
Created by potrace 1.10, written by Peter Selinger 2001-2011
</metadata>
<g transform="translate(0.000000,180.000000) scale(0.100000,-0.100000)"
fill="#9b59b6" stroke="none">
<path d="M1469 1685 c-1 -16 -1 -40 0 -52 1 -17 -4 -23 -19 -23 -11 0 -20 6
-20 14 0 8 -9 24 -20 37 l-20 24 10 -28 c5 -16 10 -35 10 -43 0 -19 -34 -18
-50 1 -7 8 -17 15 -22 15 -5 0 2 -14 16 -31 14 -17 26 -37 26 -45 0 -11 6 -13
20 -9 28 9 121 9 147 1 17 -5 23 -2 28 16 4 13 17 34 29 47 l21 25 -27 -17
c-52 -33 -69 -19 -48 40 l10 28 -20 -24 c-11 -13 -20 -29 -20 -37 0 -8 -10
-14 -21 -14 -16 0 -20 5 -16 19 2 11 1 35 -3 53 l-8 33 -3 -30z m89 -110 c11
-10 6 -11 -27 -5 -23 4 -67 5 -99 3 -62 -5 -65 6 -5 17 49 8 114 1 131 -15z"/>
<path d="M1376 1519 c-125 -20 -258 -128 -319 -256 -27 -59 -32 -81 -35 -168
-3 -87 -1 -109 21 -167 18 -51 21 -68 11 -68 -7 0 -16 -5 -19 -10 -4 -7 2 -9
17 -5 19 5 30 -4 66 -50 49 -65 135 -124 217 -149 43 -14 79 -17 154 -14 91 3
104 7 177 43 73 37 84 39 150 36 116 -5 204 49 220 135 16 87 -21 208 -80 263
-31 29 -34 20 -6 -19 42 -59 62 -149 48 -215 -13 -60 -60 -101 -125 -110 -26
-4 -57 -11 -69 -16 -11 -6 -27 -9 -35 -7 -8 1 -41 -11 -74 -29 -121 -63 -225
-78 -339 -48 -93 24 -179 85 -237 167 -35 48 0 31 53 -27 51 -56 141 -109 207
-121 26 -6 33 -4 29 7 -3 8 -11 14 -19 15 -15 1 -37 9 -87 31 -18 8 -37 11
-44 7 -8 -5 -9 0 -4 17 16 56 19 89 7 89 -7 0 -10 -4 -7 -8 8 -13 -8 -62 -19
-59 -5 1 -9 6 -7 10 1 5 -2 5 -8 2 -12 -8 -41 25 -34 37 3 5 -5 9 -18 10 -13
0 0 4 27 8 l50 7 -57 1 c-109 3 -66 32 47 32 l53 0 8 43 c11 59 11 247 0 247
-5 0 -3 7 4 15 11 13 5 15 -44 14 -31 -1 -56 -6 -56 -11 0 -5 10 -8 23 -7 12
2 33 -1 45 -5 24 -8 24 -9 20 -141 -1 -73 -5 -136 -8 -138 -10 -10 -155 -12
-156 -2 0 6 -8 27 -17 49 -9 21 -17 56 -17 77 0 33 3 39 23 40 21 1 21 1 -3 8
-22 7 -25 12 -22 50 3 44 30 120 31 89 2 -33 16 -18 18 18 1 26 11 44 35 67
19 18 23 23 9 12 -23 -18 -23 -17 3 12 50 55 97 82 134 76 l32 -5 0 -74 c0
-41 3 -74 6 -74 16 0 44 22 38 31 -4 7 -10 6 -19 -1 -11 -9 -13 -1 -10 40 2
40 8 54 29 71 14 11 26 25 26 31 0 7 -11 1 -24 -11 -16 -15 -26 -19 -31 -11
-4 6 -16 15 -28 19 -16 6 -6 11 41 21 34 7 68 10 77 7 8 -4 15 -2 15 3 0 6 15
10 33 10 30 -1 31 -1 13 -15 -21 -16 -13 -18 19 -6 11 5 25 5 30 1 6 -4 27
-13 48 -20 20 -6 59 -29 86 -50 150 -119 190 -295 106 -467 -21 -43 -43 -74
-55 -78 -11 -4 -18 -11 -15 -16 4 -5 0 -9 -8 -9 -16 0 -105 28 -128 40 -13 7
-147 37 -199 45 -23 3 -40 96 -39 208 1 82 4 97 18 98 61 3 73 15 16 17 l-45
2 1 -117 c0 -65 6 -140 12 -167 l12 -49 65 -14 c36 -7 115 -29 177 -48 61 -19
116 -35 122 -35 21 0 92 116 113 183 51 170 -19 359 -170 455 -186 119 -446
59 -559 -129 -66 -110 -79 -252 -33 -356 22 -50 24 -63 11 -63 -17 0 -53 107
-58 178 -14 175 82 339 243 414 165 77 343 47 475 -78 161 -154 178 -402 39
-576 -39 -48 -22 -59 19 -13 40 46 67 101 86 172 16 60 21 173 8 173 -5 0 -9
17 -9 38 -4 98 -122 249 -236 302 -100 47 -182 58 -292 39z"/>
<path d="M1290 1354 c0 -49 -1 -51 -25 -46 -21 4 -25 1 -25 -21 0 -14 5 -29
10 -32 7 -4 9 2 4 19 -7 28 6 35 25 12 9 -11 9 -15 -1 -19 -13 -5 -8 -7 19 -7
10 0 11 117 1 133 -4 7 -8 -10 -8 -39z"/>
<path d="M1405 1351 c-3 -5 -1 -12 4 -15 5 -3 11 1 15 9 6 16 -9 21 -19 6z"/>
<path d="M1434 1332 c3 -5 0 -13 -6 -15 -9 -4 -10 -6 -1 -6 17 -1 25 16 12 25
-7 4 -9 3 -5 -4z"/>
<path d="M1220 1314 c0 -14 3 -14 15 -4 8 7 15 14 15 16 0 2 -7 4 -15 4 -8 0
-15 -7 -15 -16z"/>
<path d="M1432 1301 c-11 -7 -11 -9 1 -14 16 -6 27 0 27 15 0 10 -11 10 -28
-1z"/>
<path d="M1184 1256 c-3 -8 -4 -23 -2 -33 3 -11 6 -6 9 15 6 34 2 42 -7 18z"/>
<path d="M1200 1230 c0 -5 4 -10 9 -10 6 0 13 5 16 10 3 6 -1 10 -9 10 -9 0
-16 -4 -16 -10z"/>
<path d="M1248 1233 c7 -3 16 -2 19 1 4 3 -2 6 -13 5 -11 0 -14 -3 -6 -6z"/>
<path d="M1370 1232 c0 -4 25 -9 56 -10 34 -1 53 2 49 8 -7 12 -105 14 -105 2z"/>
<path d="M1514 1227 c10 -7 30 -22 43 -34 14 -12 31 -19 39 -16 8 3 24 -3 35
-13 20 -18 21 -18 8 8 -13 29 -72 63 -94 54 -8 -3 -17 -1 -20 4 -4 6 -12 10
-18 9 -7 0 -4 -6 7 -12z"/>
<path d="M1780 1229 c0 -5 5 -7 10 -4 6 3 10 8 10 11 0 2 -4 4 -10 4 -5 0 -10
-5 -10 -11z"/>
<path d="M1746 1199 c-11 -11 -15 -19 -9 -19 12 0 38 28 32 34 -2 2 -13 -5
-23 -15z"/>
<path d="M1648 1193 c7 -3 16 -2 19 1 4 3 -2 6 -13 5 -11 0 -14 -3 -6 -6z"/>
<path d="M1384 1173 c8 -8 66 -12 70 -4 3 4 -13 8 -34 8 -22 0 -38 -2 -36 -4z"/>
<path d="M1694 1158 c-5 -7 -3 -8 5 -4 7 5 19 0 27 -10 14 -18 14 -18 4 4 -12
24 -25 28 -36 10z"/>
<path d="M1496 1144 c-9 -8 -20 -13 -25 -10 -5 4 -18 -4 -28 -16 -10 -13 -30
-31 -45 -41 -25 -16 -30 -35 -18 -67 2 -3 2 -9 1 -13 -1 -5 3 -5 9 -2 7 4 10
0 8 -11 -4 -22 18 -21 68 1 36 17 77 4 92 -30 20 -44 72 -17 95 48 7 20 -48
147 -64 147 -13 0 -11 -14 4 -29 10 -11 10 -13 0 -7 -7 4 -13 3 -13 -3 0 -5
-12 -14 -27 -20 -25 -9 -23 -9 14 -4 39 5 42 3 58 -26 13 -26 14 -39 5 -66
-15 -44 -34 -50 -67 -19 -31 29 -63 39 -95 28 -13 -4 -25 -6 -27 -5 -2 2 -7
-3 -11 -10 -6 -8 -13 -2 -24 20 -15 29 -15 32 -1 38 11 4 13 8 6 12 -13 8 29
41 77 60 26 11 35 11 47 1 9 -7 18 -10 22 -6 3 3 2 6 -4 6 -6 0 -13 9 -16 20
-6 24 -20 25 -41 4z"/>
<path d="M1654 1134 c-18 -14 -18 -15 4 -4 12 6 22 13 22 15 0 8 -5 6 -26 -11z"/>
<path d="M1158 1063 c6 -2 18 -2 25 0 6 3 1 5 -13 5 -14 0 -19 -2 -12 -5z"/>
<path d="M1258 1053 c7 -3 16 -2 19 1 4 3 -2 6 -13 5 -11 0 -14 -3 -6 -6z"/>
<path d="M1305 910 c-3 -5 -1 -10 4 -10 6 0 11 5 11 10 0 6 -2 10 -4 10 -3 0
-8 -4 -11 -10z"/>
<path d="M1580 900 c0 -5 5 -10 10 -10 6 0 10 5 10 10 0 6 -4 10 -10 10 -5 0
-10 -4 -10 -10z"/>
<path d="M1726 879 c-11 -11 -25 -19 -32 -19 -6 0 -15 -7 -18 -16 -5 -12 2
-11 32 7 48 29 56 36 45 42 -4 2 -17 -4 -27 -14z"/>
<path d="M1328 873 c7 -3 16 -2 19 1 4 3 -2 6 -13 5 -11 0 -14 -3 -6 -6z"/>
<path d="M1291 856 c2 -2 18 -6 34 -10 22 -5 26 -4 15 4 -14 9 -59 15 -49 6z"/>
<path d="M1394 807 c3 -12 11 -48 18 -79 12 -56 13 -58 45 -58 48 0 132 20
182 43 l43 20 -73 27 c-41 15 -107 37 -148 48 l-73 21 6 -22z m146 -40 c91
-30 93 -31 60 -38 -19 -3 -28 -7 -20 -9 8 -1 -14 -8 -50 -15 -62 -13 -100 -12
-100 3 0 4 -7 29 -15 55 -17 56 -33 55 125 4z"/>
<path d="M1431 774 c0 -11 3 -14 6 -6 3 7 2 16 -1 19 -3 4 -6 -2 -5 -13z"/>
<path d="M1271 774 c0 -11 3 -14 6 -6 3 7 2 16 -1 19 -3 4 -6 -2 -5 -13z"/>
<path d="M2242 576 c-27 -32 -39 -66 -54 -160 -3 -20 -54 -63 -63 -54 -5 5 1
39 20 126 5 20 2 22 -41 22 -40 0 -51 -5 -80 -35 -39 -42 -54 -99 -31 -122 21
-22 53 -8 83 35 l25 37 -7 -37 c-8 -48 14 -60 56 -30 27 21 28 21 33 2 3 -11
12 -20 20 -20 17 0 70 40 63 48 -3 3 -15 -3 -26 -13 -11 -10 -23 -15 -26 -12
-4 4 1 46 11 94 24 122 39 148 82 138 12 -3 25 -1 28 5 4 6 -8 10 -28 10 -27
0 -42 -8 -65 -34z m-130 -101 c-8 -54 -102 -138 -102 -92 0 24 22 81 38 100
22 25 68 19 64 -8z"/>
<path d="M701 556 c-21 -12 -50 -50 -51 -68 0 -15 30 5 35 23 7 21 52 55 61
46 6 -6 -11 -101 -27 -154 -7 -21 -17 -33 -29 -33 -9 0 -22 -6 -28 -13 -15
-18 83 -17 100 2 11 11 9 13 -14 9 -33 -6 -34 -4 -9 28 11 14 25 56 32 94 11
62 15 70 34 70 33 0 50 -26 39 -57 -9 -26 -22 -36 -58 -48 -28 -8 -13 -17 17
-9 61 15 100 91 58 114 -28 14 -131 12 -160 -4z"/>
<path d="M1260 540 c0 -12 -10 -24 -22 -30 -18 -7 -19 -9 -5 -9 15 -1 17 -6
10 -38 -21 -105 -2 -146 48 -103 22 19 22 20 2 11 -12 -6 -24 -11 -27 -11 -9
0 -7 34 5 90 10 46 13 50 40 50 16 0 29 4 29 8 0 5 -13 7 -29 4 -26 -4 -28 -2
-24 22 4 19 1 26 -11 26 -9 0 -16 -8 -16 -20z"/>
<path d="M1920 540 c0 -12 -10 -24 -22 -30 -18 -7 -19 -9 -5 -9 15 -1 17 -6
10 -38 -21 -105 -2 -146 48 -103 22 19 22 20 2 11 -12 -6 -24 -11 -27 -11 -9
0 -7 34 5 90 10 46 13 50 40 50 16 0 29 4 29 8 0 5 -13 7 -29 4 -26 -4 -28 -2
-24 22 4 19 1 26 -11 26 -9 0 -16 -8 -16 -20z"/>
<path d="M916 499 c-54 -43 -72 -112 -36 -144 17 -16 25 -17 59 -7 21 7 44 19
51 27 16 19 11 19 -30 -1 -24 -12 -38 -14 -49 -7 -28 18 -24 40 8 46 17 4 50
25 73 47 64 60 67 56 43 -49 -17 -69 -16 -75 8 -66 17 7 27 46 30 120 2 48 1
50 -22 47 -14 -1 -33 -10 -43 -19 -16 -14 -18 -14 -18 -1 0 14 -19 28 -39 28
-5 0 -20 -9 -35 -21z m51 -15 c5 -16 -28 -51 -54 -59 -28 -8 -29 1 -3 43 20
32 49 40 57 16z"/>
<path d="M1126 499 c-14 -11 -31 -30 -37 -42 -9 -18 -6 -17 15 6 40 41 50 35
41 -25 -12 -82 -11 -92 6 -96 9 -2 30 9 45 23 l29 26 -28 -17 c-15 -9 -29 -15
-31 -13 -2 2 1 31 7 65 10 60 6 94 -11 94 -5 0 -21 -9 -36 -21z"/>
<path d="M1389 505 c-32 -17 -54 -50 -63 -92 -6 -25 -3 -36 13 -52 26 -26 37
-26 85 -1 l39 19 17 -22 c18 -21 20 -21 61 -7 23 8 44 21 47 27 2 9 -4 8 -25
-2 -34 -18 -49 -19 -59 -3 -12 19 -6 79 11 104 18 27 65 34 65 9 0 -8 5 -15
11 -15 6 0 9 10 7 23 -2 18 -9 22 -38 20 -41 -2 -87 -47 -97 -94 -10 -51 -86
-78 -102 -36 -7 19 -4 23 27 32 45 13 81 58 66 83 -15 22 -33 25 -65 7z m36
-15 c12 -19 -6 -48 -35 -59 -26 -9 -30 -8 -30 8 0 18 35 61 50 61 5 0 12 -5
15 -10z"/>
<path d="M1670 507 c-13 -7 -35 -28 -47 -46 -64 -95 21 -163 99 -79 35 38 40
111 9 128 -25 13 -30 13 -61 -3z m48 -49 c4 -50 -21 -98 -52 -98 -30 0 -42 42
-26 85 16 42 30 56 54 53 16 -2 22 -11 24 -40z"/>
<path d="M1790 500 c-26 -26 -25 -42 6 -79 35 -42 26 -66 -20 -57 -41 8 -59
-10 -21 -20 32 -8 70 8 84 34 8 15 4 28 -20 60 -33 45 -31 62 7 62 16 0 24 -6
25 -17 0 -15 2 -15 8 2 15 37 -36 48 -69 15z"/>
<path d="M804 275 c1 -44 16 -46 17 -2 l1 32 7 -29 c3 -16 13 -32 21 -34 13
-5 13 -3 1 12 -8 9 -11 19 -8 23 9 8 -12 33 -27 33 -8 0 -12 -14 -12 -35z"/>
<path d="M890 275 c0 -30 3 -35 23 -35 18 0 19 2 7 10 -13 9 -13 11 0 20 10 6
11 10 3 10 -7 0 -13 5 -13 11 0 5 5 7 10 4 6 -3 10 -1 10 4 0 6 -9 11 -20 11
-16 0 -20 -7 -20 -35z"/>
<path d="M960 306 c0 -2 6 -19 14 -37 l14 -33 16 32 c18 36 19 42 7 42 -5 0
-12 -10 -14 -22 l-4 -23 -8 23 c-6 18 -25 32 -25 18z"/>
<path d="M1055 275 c0 -19 3 -35 8 -35 4 0 7 16 7 35 0 19 -3 35 -7 35 -5 0
-8 -16 -8 -35z"/>
<path d="M1110 306 c0 -16 29 -66 33 -59 15 24 26 63 18 63 -5 0 -12 -10 -16
-22 l-8 -23 -4 23 c-2 12 -9 22 -14 22 -5 0 -9 -2 -9 -4z"/>
<path d="M1280 275 c0 -30 3 -35 23 -34 12 0 16 3 10 6 -7 2 -13 18 -13 34 0
16 -4 29 -10 29 -5 0 -10 -16 -10 -35z"/>
<path d="M1520 275 c0 -19 3 -35 8 -35 4 0 7 16 7 35 0 19 -3 35 -7 35 -5 0
-8 -16 -8 -35z"/>
<path d="M1580 277 c0 -20 4 -37 9 -37 5 0 7 10 4 23 l-6 22 27 -24 26 -24 0
36 c0 20 -4 37 -9 37 -5 0 -7 -10 -4 -22 l6 -23 -27 24 -26 24 0 -36z"/>
<path d="M1685 275 c0 -19 3 -35 8 -35 4 0 7 16 7 35 0 19 -3 35 -7 35 -5 0
-8 -16 -8 -35z"/>
<path d="M1754 295 c-4 -8 0 -23 7 -32 12 -15 12 -16 -3 -10 -10 3 -18 2 -18
-3 0 -14 27 -13 36 1 3 6 1 16 -5 22 -14 14 -15 30 -1 22 6 -3 10 -1 10 4 0
16 -20 13 -26 -4z"/>
<path d="M1810 299 c0 -5 5 -7 10 -4 6 4 10 -7 10 -24 0 -17 5 -31 10 -31 6 0
10 14 10 31 0 17 4 28 10 24 6 -3 10 -1 10 4 0 6 -13 11 -30 11 -16 0 -30 -5
-30 -11z"/>
<path d="M1905 275 c0 -44 15 -46 16 -2 l1 32 9 -32 c5 -18 14 -33 21 -33 7 0
7 5 -2 15 -6 8 -9 19 -5 26 7 11 -11 29 -30 29 -5 0 -10 -16 -10 -35z"/>
<path d="M1994 275 c0 -19 4 -35 8 -35 4 0 8 16 8 35 0 19 -4 35 -8 35 -4 0
-8 -16 -8 -35z"/>
<path d="M2060 275 c0 -34 20 -49 35 -25 3 6 -1 7 -9 4 -9 -3 -16 -2 -16 4 0
6 6 13 13 15 10 4 10 6 0 6 -7 1 -13 6 -13 12 0 5 5 7 10 4 6 -3 10 -1 10 4 0
6 -7 11 -15 11 -10 0 -15 -11 -15 -35z"/>
<path d="M2134 299 c-3 -6 -1 -16 5 -22 14 -14 15 -30 1 -22 -5 3 -10 1 -10
-4 0 -14 27 -14 36 0 3 6 1 16 -5 22 -14 14 -15 30 -1 22 6 -3 10 -1 10 4 0
14 -27 14 -36 0z"/>
<path d="M1202 275 c-16 -35 -14 -46 2 -16 l14 24 6 -21 c4 -12 11 -22 16 -22
5 0 2 14 -6 30 -9 17 -17 30 -18 30 -2 0 -8 -11 -14 -25z"/>
<path d="M1410 288 c0 -9 -3 -23 -6 -32 -3 -9 -2 -16 4 -16 14 0 23 43 12 54
-7 7 -10 4 -10 -6z"/>
<path d="M1456 292 c-7 -11 4 -52 13 -52 4 0 6 14 3 30 -4 31 -7 35 -16 22z"/>
<path d="M1430 254 c0 -8 5 -12 10 -9 6 3 10 10 10 16 0 5 -4 9 -10 9 -5 0
-10 -7 -10 -16z"/>
<path d="M891 173 c0 -15 3 -22 6 -14 5 11 7 11 15 0 6 -10 8 -7 6 10 -4 36
-28 39 -27 4z"/>
<path d="M934 185 c-7 -17 3 -35 19 -35 7 0 6 4 -3 10 -13 9 -13 10 0 10 12 0
13 2 1 9 -11 7 -11 9 0 14 11 4 11 6 1 6 -7 1 -15 -6 -18 -14z"/>
<path d="M970 196 c0 -4 5 -17 11 -29 l12 -21 9 23 c5 13 6 26 3 29 -3 3 -5 0
-5 -8 0 -10 -3 -10 -15 0 -8 7 -15 9 -15 6z"/>
<path d="M1022 175 c0 -16 2 -22 5 -12 2 9 2 23 0 30 -3 6 -5 -1 -5 -18z"/>
<path d="M1040 195 c0 -5 5 -17 10 -25 9 -13 11 -13 20 0 5 8 10 20 10 25 0 6
-5 3 -10 -5 -9 -13 -11 -13 -20 0 -5 8 -10 11 -10 5z"/>
<path d="M1092 175 c0 -16 2 -22 5 -12 2 9 2 23 0 30 -3 6 -5 -1 -5 -18z"/>
<path d="M1136 183 c-4 -9 -2 -21 4 -27 7 -7 10 -2 10 17 0 31 -5 34 -14 10z"/>
<path d="M1172 188 c-8 -8 -9 -15 -1 -25 16 -18 29 -16 29 5 0 13 -2 14 -9 3
-5 -8 -11 -9 -15 -3 -4 6 2 15 11 21 10 6 13 11 8 11 -6 0 -16 -5 -23 -12z"/>
<path d="M1248 175 c2 -14 6 -25 7 -25 1 0 5 11 7 25 3 16 1 25 -7 25 -8 0
-10 -9 -7 -25z"/>
<path d="M1310 189 c0 -5 -4 -7 -10 -4 -6 3 -10 -4 -9 -17 0 -13 3 -17 6 -9 5
11 7 11 14 0 6 -10 9 -6 9 14 0 15 -2 27 -5 27 -3 0 -5 -5 -5 -11z"/>
<path d="M1340 175 c0 -14 4 -25 8 -25 4 0 8 11 8 25 0 14 -4 25 -8 25 -4 0
-8 -11 -8 -25z"/>
<path d="M1426 183 c-4 -9 -2 -21 4 -27 7 -7 10 -2 10 17 0 31 -5 34 -14 10z"/>
<path d="M1461 182 c-14 -27 -14 -28 9 -28 21 0 25 12 11 35 -7 11 -11 10 -20
-7z"/>
<path d="M1508 175 c2 -14 6 -25 7 -25 1 0 5 11 7 25 3 16 1 25 -7 25 -8 0
-10 -9 -7 -25z"/>
<path d="M1542 175 c0 -16 2 -22 5 -12 2 9 2 23 0 30 -3 6 -5 -1 -5 -18z"/>
<path d="M1571 186 c-9 -10 -8 -16 4 -26 19 -16 41 1 32 24 -8 20 -21 20 -36
2z m24 -5 c3 -5 1 -12 -5 -16 -5 -3 -10 1 -10 9 0 18 6 21 15 7z"/>
<path d="M1620 176 c0 -31 6 -34 13 -6 3 11 1 23 -4 26 -5 3 -9 -6 -9 -20z"/>
<path d="M1646 183 c-4 -9 -2 -21 4 -27 7 -7 10 -2 10 17 0 31 -5 34 -14 10z"/>
<path d="M1675 191 c-3 -5 -1 -12 5 -16 6 -4 8 -11 5 -16 -4 -5 -1 -9 4 -9 6
0 11 7 11 15 0 8 -6 15 -12 15 -9 0 -8 4 2 10 9 6 10 10 3 10 -6 0 -14 -4 -18
-9z"/>
<path d="M1748 175 c2 -14 6 -25 7 -25 1 0 5 11 7 25 3 16 1 25 -7 25 -8 0
-10 -9 -7 -25z"/>
<path d="M1780 175 c0 -23 3 -27 10 -15 9 13 11 13 20 0 7 -12 10 -8 10 15 0
23 -3 27 -10 15 -9 -13 -11 -13 -20 0 -7 12 -10 8 -10 -15z"/>
<path d="M1831 173 c0 -15 3 -22 6 -14 5 11 7 11 15 0 6 -10 8 -7 6 10 -4 36
-28 39 -27 4z"/>
<path d="M1874 185 c-7 -18 3 -35 21 -35 18 0 26 25 12 39 -15 15 -27 14 -33
-4z m30 -16 c-3 -5 -10 -7 -15 -3 -5 3 -7 10 -3 15 3 5 10 7 15 3 5 -3 7 -10
3 -15z"/>
<path d="M1933 181 c3 -36 27 -40 26 -4 -2 27 -2 27 -7 3 l-5 -25 -8 25 -8 25
2 -24z"/>
<path d="M1982 188 c-8 -8 -9 -15 -1 -25 16 -18 29 -16 29 5 0 13 -2 14 -9 3
-5 -8 -11 -9 -15 -3 -4 6 2 15 11 21 10 6 13 11 8 11 -6 0 -16 -5 -23 -12z"/>
<path d="M2031 175 c0 -16 3 -24 6 -16 5 11 7 11 14 0 6 -10 8 -5 8 16 0 17
-3 24 -6 16 -5 -11 -7 -11 -14 0 -6 10 -8 5 -8 -16z"/>
<path d="M1110 175 c0 -8 2 -15 4 -15 2 0 6 7 10 15 3 8 1 15 -4 15 -6 0 -10
-7 -10 -15z"/>
<path d="M1400 170 c0 -11 2 -20 4 -20 2 0 6 9 9 20 3 11 1 20 -4 20 -5 0 -9
-9 -9 -20z"/>
<path d="M977 110 c3 -11 7 -20 8 -20 1 0 5 9 8 20 3 12 0 20 -8 20 -8 0 -11
-8 -8 -20z"/>
<path d="M1010 105 c0 -16 2 -17 10 -5 8 12 10 12 10 1 0 -17 13 -6 16 14 1 8
-6 13 -17 12 -12 -1 -19 -9 -19 -22z"/>
<path d="M1060 110 c0 -12 7 -20 18 -20 14 0 15 2 2 10 -10 6 -11 10 -2 10 6
0 12 5 12 10 0 6 -7 10 -15 10 -8 0 -15 -9 -15 -20z"/>
<path d="M1130 110 c0 -11 6 -20 13 -20 19 0 27 10 20 26 -8 21 -33 17 -33 -6z
m25 0 c3 -5 1 -10 -4 -10 -6 0 -11 5 -11 10 0 6 2 10 4 10 3 0 8 -4 11 -10z"/>
<path d="M1182 113 c5 -26 38 -29 38 -4 0 15 -6 21 -21 21 -14 0 -19 -5 -17
-17z m28 -3 c0 -5 -4 -10 -10 -10 -5 0 -10 5 -10 10 0 6 5 10 10 10 6 0 10 -4
10 -10z"/>
<path d="M1239 116 c9 -11 9 -15 -1 -19 -9 -4 -7 -6 4 -6 11 -1 16 6 15 19 -1
11 -8 20 -15 20 -11 0 -12 -3 -3 -14z"/>
<path d="M1280 108 c0 -19 2 -20 10 -8 13 19 13 30 0 30 -5 0 -10 -10 -10 -22z"/>
<path d="M1320 110 c0 -13 6 -20 18 -19 9 0 12 3 5 5 -7 3 -9 12 -6 20 3 8 0
14 -6 14 -6 0 -11 -9 -11 -20z"/>
<path d="M1361 113 c-1 -16 5 -23 17 -23 10 0 13 3 6 8 -6 4 -14 14 -17 22 -4
10 -6 8 -6 -7z"/>
<path d="M1425 120 c-4 -7 -3 -16 3 -22 14 -14 45 -2 40 15 -6 16 -34 21 -43
7z m30 -10 c-3 -5 -10 -10 -16 -10 -5 0 -9 5 -9 10 0 6 7 10 16 10 8 0 12 -4
9 -10z"/>
<path d="M1480 109 c0 -18 2 -19 15 -5 8 8 15 17 15 20 0 3 -7 6 -15 6 -9 0
-15 -9 -15 -21z"/>
<path d="M1560 116 c0 -8 -6 -17 -12 -19 -8 -3 -6 -6 5 -6 11 -1 17 6 17 19 0
11 -2 20 -5 20 -3 0 -5 -6 -5 -14z"/>
<path d="M1580 110 c0 -12 7 -20 18 -20 14 0 15 2 2 10 -10 6 -11 10 -2 10 6
0 12 5 12 10 0 6 -7 10 -15 10 -8 0 -15 -9 -15 -20z"/>
<path d="M1629 116 c9 -11 9 -15 -1 -19 -9 -4 -7 -6 4 -6 11 -1 16 6 15 19 -1
11 -8 20 -15 20 -11 0 -12 -3 -3 -14z"/>
<path d="M1660 123 c0 -5 4 -14 9 -22 11 -17 31 -6 30 17 0 14 -2 13 -9 -3 -7
-17 -9 -17 -9 -2 -1 16 -21 26 -21 10z"/>
<path d="M1710 120 c0 -5 4 -10 9 -10 6 0 13 5 16 10 3 6 -1 10 -9 10 -9 0
-16 -4 -16 -10z"/>
<path d="M1780 110 c0 -12 7 -20 18 -20 14 0 15 2 2 10 -13 9 -13 11 0 20 13
8 12 10 -2 10 -11 0 -18 -8 -18 -20z"/>
<path d="M1831 106 c0 -13 3 -16 6 -7 5 11 7 11 14 0 7 -11 9 -9 9 7 0 12 -6
21 -15 21 -9 0 -15 -9 -14 -21z"/>
<path d="M1880 112 c0 -10 6 -19 13 -19 7 0 13 9 13 19 0 10 -6 18 -13 18 -7
0 -13 -8 -13 -18z"/>
<path d="M1922 110 c0 -14 2 -19 5 -12 2 6 2 18 0 25 -3 6 -5 1 -5 -13z"/>
<path d="M1949 116 c9 -11 9 -15 -1 -19 -9 -4 -7 -6 4 -6 11 -1 16 6 15 19 -1
11 -8 20 -15 20 -11 0 -12 -3 -3 -14z"/>
<path d="M1988 108 c4 -16 7 -18 10 -8 3 8 10 18 16 22 6 5 2 8 -11 8 -17 0
-20 -4 -15 -22z"/>
<path d="M1720 100 c-13 -8 -12 -10 3 -10 9 0 17 5 17 10 0 12 -1 12 -20 0z"/>
</g>
</svg>
