<?xml version="1.0" standalone="no"?>
<!DOCTYPE svg PUBLIC "-//W3C//DTD SVG 20010904//EN"
 "http://www.w3.org/TR/2001/REC-SVG-20010904/DTD/svg10.dtd">
<svg version="1.0" xmlns="http://www.w3.org/2000/svg"
 width="300.000000pt" height="200.000000pt" viewBox="0 0 300.000000 200.000000"
 preserveAspectRatio="xMidYMid meet">
<metadata>
Created by potrace 1.10, written by Peter Selinger 2001-2011
</metadata>
<g transform="translate(0.000000,200.000000) scale(0.100000,-0.100000)"
fill="#a66bbe" stroke="none">
<path d="M502 1975 c-19 -8 -23 -16 -19 -40 2 -16 1 -57 -3 -90 -8 -61 -46
-356 -56 -432 -3 -24 -9 -43 -15 -43 -5 0 -9 -13 -9 -30 0 -22 5 -31 23 -35
12 -3 171 -37 352 -75 366 -77 462 -103 427 -114 -31 -10 -27 -22 9 -30 47 -9
59 -7 59 9 0 22 18 18 25 -6 5 -16 9 -18 15 -9 5 8 13 9 21 4 11 -6 10 -3 -1
10 -13 17 -13 18 5 14 11 -2 19 -10 17 -18 -3 -11 0 -11 12 -1 9 8 25 11 36 8
20 -5 70 12 70 25 0 4 -47 7 -105 6 -57 -1 -108 1 -111 5 -4 4 -18 7 -30 7
-13 0 -25 4 -29 10 -3 5 -13 6 -21 3 -14 -5 -15 -3 -6 14 6 11 8 23 5 27 -10
10 17 7 92 -9 39 -9 100 -22 136 -30 37 -8 77 -18 89 -23 12 -5 35 -6 50 -4
l28 4 -24 35 c-28 42 -33 89 -8 79 9 -3 19 -6 23 -6 4 0 8 -10 8 -22 2 -23 27
-48 49 -48 6 0 14 11 17 25 3 21 -4 33 -40 62 -24 20 -51 49 -59 64 -16 32
-19 93 -4 84 5 -3 7 0 4 8 -3 8 2 19 10 26 24 20 68 4 93 -32 23 -33 40 -87
28 -87 -15 0 -45 22 -41 29 9 13 -33 51 -49 45 -28 -11 -15 -42 35 -84 62 -52
81 -105 56 -158 -13 -26 -21 -32 -36 -27 -15 5 -23 0 -31 -19 -14 -29 -8 -28
-219 -51 -80 -9 -190 -22 -245 -30 -55 -8 -155 -19 -222 -25 -67 -6 -130 -12
-140 -14 -10 -2 -47 -6 -83 -9 l-65 -6 52 13 c28 8 95 17 149 20 54 4 120 12
148 17 28 5 72 10 99 10 41 1 67 12 55 24 -4 5 -486 -53 -506 -60 -8 -3 -11
-13 -7 -25 8 -26 -24 -352 -36 -365 -5 -5 -9 -16 -9 -25 0 -15 25 -18 218 -24
250 -7 382 -16 380 -25 -5 -22 16 -161 24 -161 6 0 7 -66 3 -185 -5 -122 -4
-185 2 -185 6 0 13 23 17 51 10 75 8 307 -3 327 -5 10 -9 46 -10 80 0 70 -21
105 -65 105 -17 0 -26 5 -26 15 0 13 24 14 193 9 105 -4 215 -7 242 -7 43 0
52 -3 62 -25 10 -22 9 -25 -7 -25 -11 0 -22 5 -25 10 -4 7 -12 7 -25 0 -10 -5
-29 -10 -42 -10 -15 0 -19 -3 -10 -8 10 -7 10 -24 3 -77 -11 -79 -31 -111 -31
-49 0 22 4 34 8 27 5 -7 8 4 7 27 0 22 -3 40 -7 40 -5 0 -8 -6 -9 -12 0 -7 -2
-24 -4 -38 -10 -86 -7 -457 4 -420 l8 25 5 -25 c3 -14 6 59 7 162 1 120 5 188
11 190 6 2 16 36 22 76 l10 72 107 0 c58 0 333 -9 611 -20 278 -11 513 -20
522 -20 14 0 16 6 11 33 -3 17 -9 34 -13 37 -3 3 -12 46 -18 95 -36 266 -63
486 -66 531 -4 64 -11 75 -39 69 -12 -2 -42 -7 -67 -9 -128 -15 -549 -67 -577
-71 l-32 -6 -3 88 -3 87 -325 148 c-179 82 -374 170 -435 197 -60 28 -191 86
-290 131 -391 178 -388 177 -413 165z m66 -35 c8 -8 11 -9 7 -2 -9 17 1 15 20
-5 15 -14 25 -18 68 -22 5 -1 5 -6 1 -12 -4 -6 1 -9 12 -8 11 2 30 -3 44 -11
14 -8 29 -13 33 -12 5 1 5 -3 1 -9 -5 -9 -2 -10 9 -6 10 3 17 2 17 -3 0 -6 7
-10 15 -10 9 0 48 -15 88 -33 40 -19 113 -51 162 -72 50 -21 102 -47 117 -57
16 -11 33 -16 39 -12 7 4 9 3 6 -3 -4 -6 5 -14 21 -17 15 -4 56 -21 92 -38 36
-17 79 -37 95 -44 17 -7 71 -32 120 -54 50 -23 113 -51 140 -61 49 -19 87 -39
73 -39 -9 0 -323 134 -873 375 -110 48 -237 103 -282 123 -46 19 -83 39 -83
43 0 13 44 6 58 -11z m8 -45 c33 -14 68 -30 79 -34 11 -5 165 -71 342 -147
187 -79 320 -141 316 -147 -3 -6 -1 -7 4 -4 6 4 26 0 44 -8 19 -8 28 -15 22
-16 -7 -1 -18 -2 -24 -3 -6 0 -18 -12 -26 -26 l-15 -25 23 25 c18 21 21 21 15
5 -5 -11 -11 -28 -13 -37 -3 -10 -10 -15 -15 -12 -6 4 -8 -1 -4 -14 4 -11 2
-23 -4 -27 -5 -3 -10 -11 -10 -16 0 -6 5 -7 12 -3 7 4 8 3 4 -4 -14 -23 -23
-11 -34 49 -11 60 -8 89 10 89 5 0 7 -4 3 -9 -3 -5 -2 -12 3 -15 4 -2 13 4 20
14 10 16 8 19 -11 18 -12 -1 -28 -6 -35 -11 -9 -7 -11 -6 -7 4 3 8 -7 24 -24
38 -33 28 -171 93 -171 82 0 -5 30 -22 68 -39 82 -38 98 -51 113 -88 14 -38
13 -118 -3 -145 -11 -17 -20 -20 -58 -16 -25 3 -54 8 -65 12 -18 5 -20 1 -22
-57 -2 -40 2 -65 10 -70 19 -12 -14 -10 -51 3 -25 9 -31 16 -27 32 8 44 16
362 7 350 -4 -7 -9 -45 -10 -85 -2 -39 -5 -75 -8 -80 -3 -4 -8 -53 -11 -107
-6 -104 3 -133 37 -124 11 3 11 1 -2 -10 -16 -12 -14 -14 13 -14 20 0 26 3 17
9 -9 6 -7 8 7 7 39 -3 47 1 41 17 -4 9 -1 24 6 32 11 13 11 14 0 8 -10 -6 -13
1 -10 30 2 29 7 38 18 35 60 -14 92 -13 110 4 11 10 20 28 21 39 0 19 1 19 11
-4 6 -14 12 -35 13 -48 3 -18 0 -22 -13 -17 -13 5 -14 4 -5 -6 9 -9 9 -18 -3
-40 -8 -16 -20 -29 -27 -30 -9 0 -9 -2 1 -6 14 -5 17 -43 3 -43 -6 0 -13 5
-17 11 -4 8 -9 7 -15 -2 -6 -10 -9 -11 -9 -2 0 9 -9 8 -34 -4 -21 -10 -32 -21
-29 -29 7 -18 8 -18 -142 17 -71 17 -140 30 -153 30 -15 -1 -21 3 -16 11 4 6
3 8 -4 4 -13 -8 -205 33 -213 47 -4 5 -11 7 -17 3 -15 -9 -192 27 -192 40 0 5
7 19 15 30 14 19 14 19 15 -3 0 -12 3 -24 8 -26 4 -3 7 27 7 66 0 40 4 95 8
122 14 86 18 162 7 140 -7 -17 -9 -17 -9 -3 -1 9 6 21 15 26 9 5 17 25 19 48
2 21 7 62 12 90 5 28 6 61 2 73 -5 11 -7 21 -5 21 2 0 30 -11 62 -25z m-119
-367 c-3 -8 -6 -5 -6 6 -1 11 2 17 5 13 3 -3 4 -12 1 -19z m999 -133 c27 -130
28 -139 12 -129 -7 4 -11 5 -8 1 3 -3 9 -5 15 -6 7 0 38 -102 32 -108 -1 -1
-14 1 -29 4 -23 4 -28 11 -29 37 -1 17 -1 34 -1 37 1 4 -18 12 -41 17 -46 12
-57 5 -57 -36 0 -19 -4 -22 -27 -16 -16 4 -30 8 -32 10 -2 2 6 39 18 81 13 43
33 115 44 159 l22 82 29 -12 c27 -11 31 -19 52 -121z m20 112 c96 -45 100 -47
78 -42 -13 3 -26 -1 -35 -12 -13 -17 -13 -17 6 -3 19 13 19 13 -1 -10 -29 -34
-27 -104 3 -146 17 -23 19 -31 7 -31 -7 0 -14 5 -14 11 0 6 -4 5 -9 -3 -7 -10
-11 -5 -16 17 -3 18 -4 36 0 42 3 5 2 10 -3 10 -6 0 -8 16 -5 36 3 22 1 34 -5
30 -5 -3 -12 16 -16 44 -5 34 -13 54 -29 65 -30 21 -19 19 39 -8z m209 -97
c-3 -4 24 -20 59 -35 50 -21 65 -33 69 -52 3 -18 1 -23 -9 -19 -8 3 -21 9 -29
12 -12 5 -14 -7 -8 -88 l6 -93 -29 -12 c-25 -9 -26 -11 -7 -12 12 -1 28 6 37
14 8 8 20 15 26 15 7 0 8 6 2 18 -5 9 -8 39 -8 65 1 39 6 52 26 68 14 10 20
19 14 19 -9 0 -28 50 -19 50 11 0 121 -54 126 -62 4 -6 6 -33 5 -59 -2 -27 1
-49 6 -49 19 0 6 -16 -14 -18 -13 -1 -43 -6 -68 -10 -43 -9 -44 -10 -10 -11
19 0 41 3 48 8 20 12 62 1 55 -15 -6 -16 13 -19 22 -4 3 6 11 10 16 10 6 0 8
-4 5 -8 -2 -4 11 -6 31 -4 19 3 30 8 24 11 -12 8 91 15 164 13 30 -1 36 1 25
9 -12 8 -12 9 5 7 11 -1 26 1 33 6 8 5 18 4 25 -3 6 -6 16 -11 21 -11 6 0 4 5
-4 11 -11 7 -3 8 30 4 34 -5 41 -3 30 5 -12 8 -8 9 15 4 17 -3 36 -7 42 -9 7
-3 12 1 10 8 -1 8 14 12 50 11 29 0 50 2 48 6 -2 4 11 6 30 5 18 0 32 2 29 6
-2 4 8 7 21 7 14 0 30 -8 35 -17 8 -16 -38 -22 -521 -76 -291 -32 -532 -55
-536 -51 -8 8 -2 13 22 18 36 6 55 31 56 73 1 26 3 32 6 16 4 -19 7 -21 15
-10 7 10 8 9 3 -6 -9 -27 -13 -42 -7 -31 2 4 8 2 13 -5 5 -9 9 27 9 89 0 100
-1 103 -25 112 -14 5 -25 18 -25 28 0 9 -7 27 -15 39 -14 20 -13 21 5 16 11
-3 18 -9 15 -13z m135 -25 c25 -13 41 -24 35 -24 -5 0 -30 11 -55 24 -25 13
-40 24 -35 24 6 0 30 -11 55 -24z m-221 -18 c8 -10 7 -14 -2 -14 -8 0 -14 6
-14 14 0 7 1 13 2 13 2 0 8 -6 14 -13z m69 -63 c6 -1 12 2 12 7 0 4 7 6 15 3
12 -5 14 -15 9 -40 -4 -22 -2 -40 6 -49 7 -9 11 -18 8 -21 -3 -2 -16 18 -30
46 -14 27 -27 47 -30 45 -3 -3 -11 2 -19 12 -12 15 -12 16 1 8 8 -5 21 -10 28
-11z m119 -76 c-3 -8 -6 -5 -6 6 -1 11 2 17 5 13 3 -3 4 -12 1 -19z m-384 1
c17 -8 23 -17 20 -30 -3 -10 0 -19 6 -19 6 0 11 -5 11 -11 0 -6 -9 -8 -22 -3
-32 9 -34 12 -19 37 13 20 13 21 -3 8 -9 -8 -20 -10 -24 -6 -4 4 -1 10 7 13
11 4 11 6 0 13 -20 12 -4 11 24 -2z m211 -14 c9 -25 -9 -24 -20 0 -9 18 -9 22
2 18 7 -2 15 -11 18 -18z m-234 -29 c0 -3 -4 -8 -10 -11 -5 -3 -10 -1 -10 4 0
6 5 11 10 11 6 0 10 -2 10 -4z m1295 -46 c5 -27 3 -46 -5 -55 -10 -12 -10 -15
0 -15 9 0 11 -13 7 -46 -3 -29 -1 -41 4 -33 6 10 9 6 9 -15 0 -28 -1 -28 -42
-23 l-43 5 48 -14 c26 -9 45 -18 43 -22 -2 -4 -1 -26 3 -49 5 -27 4 -46 -3
-53 -8 -8 -7 -11 4 -8 12 2 15 -7 15 -44 0 -25 3 -49 8 -54 10 -10 9 -26 -2
-20 -5 4 -7 -3 -4 -14 3 -11 9 -18 13 -15 4 2 5 -18 2 -45 -3 -38 0 -55 17
-78 19 -27 19 -31 5 -36 -9 -4 -24 -1 -32 6 -9 7 -13 9 -10 3 4 -6 -12 -10
-40 -11 -26 -1 -39 2 -30 5 15 5 -225 13 -469 15 -50 1 -90 3 -88 6 2 3 -18 5
-43 5 -222 3 -412 12 -413 20 -1 6 -1 16 0 24 2 7 -2 11 -6 8 -5 -3 -9 34 -9
82 l0 87 28 0 c29 0 34 -5 20 -22 -5 -5 -5 -22 -1 -39 l8 -30 -3 33 c-1 17 2
32 6 32 5 0 8 -24 7 -53 -3 -63 17 -101 47 -91 18 6 17 5 -1 -9 -25 -20 -6
-22 21 -2 20 15 59 21 50 7 -6 -10 45 -9 62 2 7 4 12 3 12 -3 0 -5 -6 -11 -12
-14 -7 -2 1 -4 19 -3 17 0 30 4 27 7 -3 5 174 5 196 0 3 -1 -2 -6 -10 -11 -11
-7 -11 -10 -2 -10 18 0 54 82 40 91 -7 4 -7 9 0 13 13 8 4 42 -16 58 -12 10
-16 10 -19 0 -3 -6 -9 -10 -14 -6 -5 3 -41 6 -79 7 -70 1 -70 1 -70 29 0 15
-1 31 -2 35 -2 4 29 9 67 11 95 5 109 14 100 60 -9 48 -27 59 -99 61 -61 1
-78 9 -82 35 -2 11 9 14 46 13 26 -1 46 1 43 6 -2 4 1 7 6 7 6 0 11 -4 11 -10
0 -5 7 -10 15 -10 8 0 15 5 15 11 0 5 5 7 10 4 6 -3 10 -1 10 5 0 6 5 8 10 5
6 -3 10 5 10 19 0 26 31 51 45 38 5 -4 5 -2 1 5 -4 7 -14 9 -22 6 -10 -4 -17
2 -21 15 -7 29 -20 32 -109 21 -43 -6 -88 -8 -101 -5 -12 4 -25 1 -28 -4 -4
-6 -10 -8 -15 -5 -5 3 -18 -4 -29 -16 -17 -18 -18 -25 -8 -37 10 -13 9 -14 -8
-5 -11 6 -24 12 -30 13 -5 1 -9 6 -8 11 2 5 -6 9 -17 9 -11 0 -20 4 -20 8 0 5
-28 5 -62 0 -34 -4 -70 -6 -80 -2 -11 3 -30 -1 -43 -10 -18 -12 -25 -12 -28
-3 -3 6 -6 1 -6 -13 -1 -17 -4 -21 -10 -12 -12 20 -62 21 -80 3 -13 -13 -16
-41 -16 -159 0 -122 -2 -145 -16 -153 -27 -14 -39 11 -39 84 0 49 3 66 12 61
8 -5 9 4 4 34 -5 34 -3 42 9 42 8 0 15 4 15 10 0 5 -3 9 -7 9 -21 -3 -33 3
-33 17 0 9 5 12 13 8 8 -5 8 -2 -2 9 -7 9 -10 17 -5 17 4 0 2 6 -5 13 -13 13
-82 17 -74 4 3 -5 -10 -6 -28 -4 -19 3 -65 1 -104 -4 -38 -5 -81 -11 -95 -13
-38 -5 -61 -17 -53 -29 4 -6 0 -8 -10 -4 -11 4 -17 1 -17 -9 0 -8 4 -13 8 -10
4 3 8 -13 9 -35 0 -21 -2 -39 -6 -39 -4 0 -5 -27 -3 -60 3 -38 0 -65 -8 -75
-6 -8 -9 -19 -5 -25 3 -5 2 -10 -3 -10 -17 0 -20 25 -6 45 8 10 13 35 13 54
l-2 36 -6 -42 c-4 -24 -11 -46 -15 -50 -4 -5 -5 3 -2 17 4 14 8 45 9 70 1 25
6 48 11 52 6 4 5 12 -3 21 -8 11 -9 16 -1 19 8 2 8 11 1 31 -10 24 -15 27 -56
25 -25 0 -48 2 -52 5 -3 4 4 7 18 7 13 0 76 6 139 14 254 32 327 40 382 40 32
1 58 4 58 9 0 4 15 7 33 7 17 0 154 13 302 30 256 28 348 38 715 80 85 10 160
18 167 19 6 0 14 -17 18 -39z m-1429 -19 c-4 -5 0 -12 6 -14 7 -3 2 -6 -11 -6
-20 -1 -21 1 -11 14 14 16 25 21 16 6z m832 -90 l2 -38 -52 -7 c-29 -3 -72 -6
-95 -6 l-43 0 0 -51 0 -51 89 7 89 7 4 -41 4 -41 -42 0 c-23 0 -62 -3 -88 -6
l-46 -7 0 -57 0 -58 105 6 105 5 0 -49 0 -49 -141 3 c-97 2 -139 0 -134 -7 7
-13 -5 -14 -23 -2 -10 6 -8 10 8 14 21 5 21 9 16 104 -3 54 -8 152 -12 219
l-6 121 104 10 c167 16 153 18 156 -26z m-338 -26 c32 -34 38 -108 13 -156
-17 -32 -18 -38 -5 -57 8 -12 16 -52 19 -89 2 -38 9 -72 14 -78 18 -19 8 -26
-33 -23 l-43 3 -3 70 c-4 85 -18 105 -73 102 l-39 -2 0 -85 0 -86 -27 2 -28 1
-3 206 -2 206 42 4 c120 10 144 8 168 -18z m-263 -154 c-5 -133 -9 -165 -26
-199 -22 -43 -36 -52 -82 -52 -82 0 -99 41 -99 243 l0 154 29 1 28 1 -5 -145
c-4 -129 -3 -146 13 -164 10 -11 26 -20 35 -20 38 0 45 27 49 187 l3 153 30 0
31 0 -6 -159z m313 133 c0 -8 4 -13 9 -10 5 4 7 -3 4 -15 -6 -23 -14 -15 -28
30 -5 16 -4 21 4 17 6 -4 11 -14 11 -22z m-542 -26 c-3 -30 -6 -33 -41 -36
-20 -2 -35 -7 -32 -12 3 -4 2 -74 -1 -154 l-7 -146 -28 0 c-20 0 -26 4 -24 17
2 10 6 80 9 155 l5 137 -35 -6 c-34 -6 -35 -5 -28 23 10 45 -1 42 157 52 26 2
28 0 25 -30z m262 17 c0 -8 -2 -15 -4 -15 -2 0 -6 7 -10 15 -3 8 -1 15 4 15 6
0 10 -7 10 -15z m-745 -16 c-23 -5 -46 -18 -53 -30 -8 -12 -9 -18 -4 -15 6 3
9 -5 8 -18 -1 -18 -4 -22 -14 -14 -10 8 -11 6 -6 -8 4 -10 11 -24 16 -31 5 -6
5 -12 -1 -15 -5 -1 -12 -16 -15 -33 -5 -25 -5 -27 4 -10 8 16 9 11 4 -20 -7
-48 -22 -78 -35 -70 -15 10 -10 -2 8 -16 11 -10 14 -10 9 -1 -4 6 -3 12 2 12
5 0 12 -9 15 -20 3 -11 2 -18 -2 -16 -4 3 -7 -11 -7 -29 0 -19 3 -30 7 -24 5
8 8 8 13 0 5 -8 15 -7 34 3 22 11 28 23 30 50 4 56 19 89 38 82 10 -4 22 1 30
11 12 16 13 16 9 -7 -6 -32 13 -128 27 -136 7 -5 8 -2 3 7 -5 8 -4 11 0 6 5
-4 10 -18 12 -30 2 -17 1 -19 -7 -7 -6 10 -10 11 -10 3 0 -7 -7 -13 -15 -13
-8 0 -15 4 -15 8 0 10 -36 9 -46 -1 -4 -3 -14 -3 -23 1 -9 5 -46 8 -84 7 l-68
-1 5 28 c2 16 1 26 -4 23 -8 -5 -20 28 -20 55 0 10 3 11 8 3 4 -6 8 14 8 44 1
30 7 60 13 66 6 6 11 16 11 21 0 6 -5 4 -10 -4 -10 -14 -8 19 4 95 2 11 4 25
5 32 1 13 34 20 106 20 l50 1 -40 -9z m277 -91 c-6 -198 -30 -258 -99 -258
-65 0 -80 73 -58 288 6 56 9 62 29 62 21 0 22 -3 15 -52 -4 -29 -8 -92 -8
-140 -1 -80 1 -87 20 -93 12 -4 26 -2 32 4 6 6 16 74 21 151 9 133 10 140 31
140 20 0 21 -4 17 -102z m-180 52 c-4 -28 -7 -30 -48 -30 l-44 0 0 -38 c0 -38
0 -38 35 -34 33 4 35 3 35 -27 0 -29 -2 -31 -39 -31 l-38 0 -7 -70 c-6 -61
-10 -70 -27 -70 -15 0 -19 5 -15 18 2 9 7 58 11 107 3 50 8 113 11 142 7 57 9
58 95 62 34 1 35 0 31 -29z m645 -2 c-3 -7 -5 -2 -5 12 0 14 2 19 5 13 2 -7 2
-19 0 -25z m303 -19 c0 -6 -4 -7 -10 -4 -5 3 -10 11 -10 16 0 6 5 7 10 4 6 -3
10 -11 10 -16z m-560 -23 c-5 -15 -8 -31 -5 -36 2 -4 1 -37 -3 -73 -6 -43 -5
-64 2 -60 5 4 7 -1 3 -10 -3 -10 -3 -17 1 -17 12 0 29 -67 17 -68 -5 0 -19 -3
-30 -5 -37 -8 -45 10 -39 82 4 36 6 98 6 138 1 70 1 72 27 75 34 4 33 5 21
-26z m-147 -40 c0 -34 -2 -103 -3 -153 -2 -66 -6 -96 -17 -104 -13 -12 -64
-14 -108 -5 -11 3 -30 5 -42 5 -13 1 -23 5 -23 10 0 6 12 6 28 1 30 -8 57 2
80 29 8 10 11 11 6 2 -4 -9 -3 -12 4 -7 6 3 9 16 7 27 -2 11 1 32 7 47 6 15
13 62 14 105 4 73 15 104 39 104 6 0 9 -25 8 -61z m244 32 c-3 -8 -6 -5 -6 6
-1 11 2 17 5 13 3 -3 4 -12 1 -19z m453 -8 c-5 -9 -6 -21 -2 -25 4 -3 7 -34 8
-68 0 -34 4 -78 8 -97 12 -60 -5 -25 -20 41 -8 35 -21 73 -28 84 -12 18 -11
24 6 45 10 13 17 29 14 36 -3 8 0 11 9 7 11 -3 12 -10 5 -23z m-940 -10 c0
-16 -5 -17 -29 -10 -16 4 -33 5 -37 2 -4 -4 -4 -1 0 6 4 6 14 12 22 12 8 0 13
4 10 9 -4 5 3 7 14 4 11 -3 20 -13 20 -23z m637 -147 c-3 -10 -5 -2 -5 17 0
19 2 27 5 18 2 -10 2 -26 0 -35z m2 -59 c-7 -9 -4 -18 10 -31 19 -18 19 -18
-24 -15 l-43 4 21 25 c12 13 23 29 23 34 3 22 5 23 14 9 5 -9 5 -19 -1 -26z
m313 -14 c4 0 8 -4 8 -10 0 -22 -19 -8 -29 21 -14 41 -12 53 2 17 6 -16 14
-28 19 -28z m-1188 -9 c3 -4 -1 -17 -8 -27 -13 -17 -14 -17 -13 9 2 27 11 35
21 18z m853 -499 c-1 -42 -3 -7 -3 78 0 85 2 120 3 78 2 -43 2 -113 0 -156z"/>
<path d="M705 1801 c-3 -6 3 -19 14 -30 17 -17 21 -18 32 -5 6 8 9 17 5 21 -3
3 -6 1 -6 -5 0 -6 -7 -9 -15 -6 -8 4 -13 10 -10 14 3 5 1 11 -4 14 -5 4 -12 2
-16 -3z"/>
<path d="M787 1779 c7 -7 15 -10 18 -7 3 3 -2 9 -12 12 -14 6 -15 5 -6 -5z"/>
<path d="M745 1730 c3 -5 8 -10 11 -10 2 0 4 5 4 10 0 6 -5 10 -11 10 -5 0 -7
-4 -4 -10z"/>
<path d="M762 1688 c4 -22 2 -26 -10 -19 -9 5 -38 3 -68 -4 -30 -7 -51 -8 -48
-3 4 5 -7 3 -22 -5 -16 -8 -37 -13 -46 -12 -10 2 -21 -2 -25 -7 -6 -11 42 -9
221 8 67 7 68 7 57 -14 -12 -23 -11 -24 43 -42 35 -11 38 -14 32 -42 -3 -17
-6 -48 -6 -69 0 -43 -9 -47 -54 -24 -37 20 -39 19 -32 -10 4 -14 4 -25 1 -25
-4 0 -27 18 -53 40 -143 120 -196 160 -210 160 -11 0 -5 -8 16 -21 17 -12 32
-26 32 -32 0 -7 -5 -5 -10 3 -8 13 -10 12 -10 -3 0 -12 6 -17 18 -15 11 2 20
-1 21 -7 1 -5 11 -19 22 -31 10 -11 16 -24 12 -29 -5 -4 -2 -5 5 -1 7 4 10 12
7 17 -4 5 -1 9 5 9 6 0 13 -7 16 -15 4 -8 10 -12 15 -9 5 3 9 -2 9 -10 0 -9 6
-15 13 -13 6 1 11 -4 10 -10 -2 -7 0 -12 5 -11 4 1 20 -5 35 -12 21 -10 24
-16 15 -23 -10 -6 -9 -8 3 -4 9 3 22 0 29 -6 10 -9 11 -9 6 0 -4 7 -2 21 3 30
10 17 10 17 11 1 0 -20 17 -23 40 -8 9 6 17 5 22 -3 5 -8 8 -3 8 11 0 13 3 21
8 19 8 -6 6 128 -3 143 -3 6 -13 10 -21 10 -9 0 -12 5 -8 12 4 7 3 8 -5 4 -13
-9 -44 12 -36 24 6 11 -24 35 -44 35 -9 0 -16 5 -16 12 0 6 -4 15 -9 20 -5 4
-7 -4 -4 -19z m-112 -170 c0 -6 -6 -5 -15 2 -8 7 -15 14 -15 16 0 2 7 1 15 -2
8 -4 15 -11 15 -16z m205 -88 c3 -5 1 -10 -4 -10 -6 0 -11 5 -11 10 0 6 2 10
4 10 3 0 8 -4 11 -10z"/>
<path d="M780 1606 c0 -2 8 -10 18 -17 15 -13 16 -12 3 4 -13 16 -21 21 -21
13z"/>
<path d="M1126 1561 c-1 -3 -4 -29 -5 -57 l-2 -51 41 -11 c39 -10 42 -9 52 13
16 35 -5 78 -48 97 -19 9 -36 13 -38 9z m33 -53 c1 27 11 28 32 4 16 -19 10
-32 -23 -44 -19 -8 -29 10 -27 50 1 27 1 27 9 -3 6 -24 8 -26 9 -7z"/>
<path d="M1091 1514 c0 -11 3 -14 6 -6 3 7 2 16 -1 19 -3 4 -6 -2 -5 -13z"/>
<path d="M1300 1470 c0 -16 4 -30 8 -30 5 0 7 14 4 30 -2 17 -6 30 -8 30 -2 0
-4 -13 -4 -30z"/>
<path d="M838 1478 c5 -5 16 -8 23 -6 8 3 3 7 -10 11 -17 4 -21 3 -13 -5z"/>
<path d="M653 1455 c0 -8 4 -12 9 -9 5 3 6 10 3 15 -9 13 -12 11 -12 -6z"/>
<path d="M1235 1440 c-3 -5 -1 -10 4 -10 6 0 11 5 11 10 0 6 -2 10 -4 10 -3 0
-8 -4 -11 -10z"/>
<path d="M1071 1424 c0 -11 3 -14 6 -6 3 7 2 16 -1 19 -3 4 -6 -2 -5 -13z"/>
<path d="M1280 1359 c0 -5 5 -7 10 -4 6 3 10 8 10 11 0 2 -4 4 -10 4 -5 0 -10
-5 -10 -11z"/>
<path d="M1142 1335 c0 -16 2 -22 5 -12 2 9 2 23 0 30 -3 6 -5 -1 -5 -18z"/>
<path d="M498 1333 c7 -3 16 -2 19 1 4 3 -2 6 -13 5 -11 0 -14 -3 -6 -6z"/>
<path d="M1160 1291 c0 -17 4 -32 8 -35 4 -2 6 11 4 30 -5 42 -12 45 -12 5z"/>
<path d="M1252 1290 c0 -14 2 -19 5 -12 2 6 2 18 0 25 -3 6 -5 1 -5 -13z"/>
<path d="M926 1255 c-11 -8 -15 -15 -9 -15 6 0 16 7 23 15 16 19 11 19 -14 0z"/>
<path d="M1389 1380 l-16 -62 24 -9 c33 -12 46 -11 36 4 -4 6 -12 38 -18 71
l-10 58 -16 -62z"/>
<path d="M2350 1110 c19 -5 62 -13 95 -19 83 -14 107 -20 113 -26 3 -3 0 -5
-7 -5 -7 0 -10 -4 -7 -9 7 -11 56 -2 56 10 0 15 -48 29 -150 45 -101 15 -158
17 -100 4z"/>
<path d="M2438 1073 c7 -3 16 -2 19 1 4 3 -2 6 -13 5 -11 0 -14 -3 -6 -6z"/>
<path d="M2475 1061 c-3 -5 -2 -12 3 -15 5 -3 9 1 9 9 0 17 -3 19 -12 6z"/>
<path d="M2507 1049 c7 -7 15 -10 18 -7 3 3 -2 9 -12 12 -14 6 -15 5 -6 -5z"/>
<path d="M2160 1039 c0 -5 5 -7 10 -4 6 3 10 8 10 11 0 2 -4 4 -10 4 -5 0 -10
-5 -10 -11z"/>
<path d="M2305 1009 c4 -5 11 -6 17 -3 7 4 8 2 4 -4 -5 -9 -13 -9 -26 -2 -16
9 -18 8 -13 -6 4 -12 3 -15 -5 -10 -8 5 -10 1 -5 -11 6 -16 5 -16 -10 -4 -15
12 -17 12 -12 -1 6 -16 -15 -17 -47 -4 -9 4 -25 6 -35 3 -12 -3 -8 -5 10 -6
32 -1 35 -11 8 -28 -12 -8 -21 -9 -25 -2 -2 5 -3 4 -1 -3 1 -7 7 -12 13 -11
13 3 23 -35 11 -43 -5 -3 -5 -13 2 -25 5 -11 8 -28 5 -37 -8 -25 26 -43 68
-37 28 5 34 2 39 -15 6 -23 28 -26 65 -6 82 43 110 54 120 44 6 -6 12 -6 17 3
5 8 4 10 -3 5 -7 -4 -12 -4 -12 1 1 11 64 40 79 35 6 -2 8 -9 5 -14 -4 -7 -2
-8 5 -4 9 6 9 11 -1 23 -11 14 -8 14 22 -1 30 -15 32 -15 15 -1 -11 9 -19 20
-18 25 4 13 -31 -1 -159 -65 -61 -30 -112 -55 -114 -55 -2 0 -4 11 -4 24 0 22
-3 23 -48 18 l-48 -4 -10 66 c-6 37 -8 69 -5 71 2 3 24 5 49 5 42 0 44 1 40
25 -3 14 -4 25 -2 25 2 0 63 -20 135 -45 139 -47 178 -56 144 -31 -11 8 -26
11 -34 8 -9 -3 -12 -1 -7 6 5 8 0 11 -16 9 -16 -1 -23 3 -22 14 1 11 -6 15
-25 13 -14 -1 -31 2 -38 8 -7 6 -19 8 -26 5 -8 -3 -20 -1 -28 5 -11 8 -10 9 4
4 11 -4 16 -2 11 5 -3 6 -17 9 -30 6 -14 -2 -27 0 -30 4 -3 5 0 9 7 9 18 0 5
10 -20 15 -12 2 -19 0 -16 -6z"/>
<path d="M2480 1002 c0 -15 79 -24 120 -13 34 9 33 9 -20 10 -30 1 -65 4 -77
7 -13 4 -23 2 -23 -4z"/>
<path d="M2510 940 c-8 -5 -10 -10 -5 -10 6 0 17 5 25 10 8 5 11 10 5 10 -5 0
-17 -5 -25 -10z"/>
<path d="M2065 931 c-3 -5 -2 -12 3 -15 5 -3 9 1 9 9 0 17 -3 19 -12 6z"/>
<path d="M2555 930 c3 -5 10 -10 16 -10 5 0 9 5 9 10 0 6 -7 10 -16 10 -8 0
-12 -4 -9 -10z"/>
<path d="M2423 845 c0 -6 8 -11 17 -11 9 0 17 5 17 11 0 6 -8 11 -17 11 -9 0
-17 -5 -17 -11z"/>
<path d="M1353 765 c0 -33 2 -45 4 -27 2 18 2 45 0 60 -2 15 -4 0 -4 -33z"/>
<path d="M2525 810 c-3 -5 -2 -10 4 -10 5 0 13 5 16 10 3 6 2 10 -4 10 -5 0
-13 -4 -16 -10z"/>
<path d="M2545 770 c3 -5 8 -10 11 -10 2 0 4 5 4 10 0 6 -5 10 -11 10 -5 0 -7
-4 -4 -10z"/>
<path d="M2280 751 c0 -5 -12 -12 -27 -14 -23 -3 -21 -4 9 -6 29 -1 36 2 32
14 -7 17 -14 20 -14 6z"/>
<path d="M1590 897 l0 -58 48 6 c47 7 74 26 67 48 -2 7 -6 25 -9 40 -6 27 -9
28 -56 25 l-50 -3 0 -58z m68 18 c12 -19 13 -19 7 5 l-6 25 15 -25 c8 -14 10
-27 5 -28 -5 -2 -6 -9 -2 -15 4 -7 -1 -6 -11 2 -9 8 -16 10 -15 5 4 -20 -2
-24 -21 -14 -14 8 -20 20 -18 40 3 35 25 37 46 5z"/>
<path d="M842 631 c0 -17 1 -31 3 -31 7 0 12 39 5 49 -4 7 -7 -1 -8 -18z"/>
<path d="M1081 854 c0 -11 3 -14 6 -6 3 7 2 16 -1 19 -3 4 -6 -2 -5 -13z"/>
<path d="M1072 765 c0 -16 2 -22 5 -12 2 9 2 23 0 30 -3 6 -5 -1 -5 -18z"/>
<path d="M1790 821 c0 -7 -4 -10 -9 -7 -5 4 -7 -4 -3 -16 l5 -22 9 24 c5 12 6
25 3 28 -3 3 -5 0 -5 -7z"/>
<path d="M1565 1310 c10 -11 20 -20 23 -20 3 0 -3 9 -13 20 -10 11 -20 20 -23
20 -3 0 3 -9 13 -20z"/>
<path d="M1205 1171 c-6 -11 13 -26 22 -17 4 3 1 6 -6 6 -7 0 -9 5 -6 10 3 6
4 10 1 10 -3 0 -7 -4 -11 -9z"/>
<path d="M1560 1176 c0 -2 8 -10 18 -17 15 -13 16 -12 3 4 -13 16 -21 21 -21
13z"/>
<path d="M1125 1070 c8 -13 55 -13 75 0 11 7 2 10 -33 10 -30 0 -46 -4 -42
-10z"/>
<path d="M561 994 c0 -11 3 -14 6 -6 3 7 2 16 -1 19 -3 4 -6 -2 -5 -13z"/>
<path d="M2731 994 c0 -11 3 -14 6 -6 3 7 2 16 -1 19 -3 4 -6 -2 -5 -13z"/>
<path d="M1330 550 c-21 -7 -17 -8 20 -9 32 0 41 2 30 9 -17 11 -16 11 -50 0z"/>
<path d="M1263 543 c9 -2 23 -2 30 0 6 3 -1 5 -18 5 -16 0 -22 -2 -12 -5z"/>
<path d="M1235 510 c-3 -5 -1 -10 4 -10 6 0 11 5 11 10 0 6 -2 10 -4 10 -3 0
-8 -4 -11 -10z"/>
<path d="M1320 510 c0 -5 5 -10 10 -10 6 0 10 5 10 10 0 6 -4 10 -10 10 -5 0
-10 -4 -10 -10z"/>
<path d="M1398 513 c7 -3 16 -2 19 1 4 3 -2 6 -13 5 -11 0 -14 -3 -6 -6z"/>
<path d="M1325 479 c-4 -6 -5 -12 -2 -15 2 -3 7 2 10 11 7 17 1 20 -8 4z"/>
<path d="M1235 427 c-8 -39 10 -91 27 -81 9 6 9 9 0 12 -7 2 -10 8 -6 13 3 5
0 9 -7 9 -8 0 -10 12 -5 40 7 48 0 54 -9 7z"/>
<path d="M1320 349 c0 -5 5 -7 10 -4 6 3 10 8 10 11 0 2 -4 4 -10 4 -5 0 -10
-5 -10 -11z"/>
<path d="M1400 349 c0 -5 5 -7 10 -4 6 3 10 8 10 11 0 2 -4 4 -10 4 -5 0 -10
-5 -10 -11z"/>
<path d="M1230 336 c0 -2 8 -10 18 -17 15 -13 16 -12 3 4 -13 16 -21 21 -21
13z"/>
<path d="M1244 220 c4 -57 14 -61 14 -6 -1 25 -5 46 -9 46 -4 0 -6 -18 -5 -40z"/>
<path d="M1322 215 c0 -16 2 -22 5 -12 2 9 2 23 0 30 -3 6 -5 -1 -5 -18z"/>
<path d="M1401 204 c0 -11 3 -14 6 -6 3 7 2 16 -1 19 -3 4 -6 -2 -5 -13z"/>
<path d="M1401 164 c0 -11 3 -14 6 -6 3 7 2 16 -1 19 -3 4 -6 -2 -5 -13z"/>
<path d="M1323 120 c0 -25 2 -35 4 -22 2 12 2 32 0 45 -2 12 -4 2 -4 -23z"/>
<path d="M1240 130 c0 -8 5 -22 10 -30 9 -13 10 -13 10 0 0 8 -5 22 -10 30 -9
13 -10 13 -10 0z"/>
<path d="M1443 60 c0 -36 2 -50 4 -32 2 17 2 47 0 65 -2 17 -4 3 -4 -33z"/>
<path d="M1221 34 c0 -11 3 -14 6 -6 3 7 2 16 -1 19 -3 4 -6 -2 -5 -13z"/>
<path d="M1248 23 c5 -21 7 -23 10 -9 2 10 0 22 -6 28 -6 6 -7 0 -4 -19z"/>
</g>
</svg>
