<?xml version="1.0" standalone="no"?>
<!DOCTYPE svg PUBLIC "-//W3C//DTD SVG 20010904//EN"
 "http://www.w3.org/TR/2001/REC-SVG-20010904/DTD/svg10.dtd">
<svg version="1.0" xmlns="http://www.w3.org/2000/svg" viewBox="0 0 900.000000 426.000000"
 preserveAspectRatio="xMidYMid meet">
<metadata>
Created by potrace 1.10, written by Peter Selinger 2001-2011
</metadata>
<g transform="translate(0.000000,426.000000) scale(0.100000,-0.100000)"
fill="#f5f5f5" stroke="none">
<path d="M3558 3840 c-154 -43 -297 -147 -383 -276 -63 -94 -113 -227 -124
-330 -6 -55 -8 -58 -39 -66 -18 -5 -70 -7 -115 -6 l-82 3 -7 150 c-5 83 -10
155 -12 161 -5 14 -125 29 -137 17 -5 -5 -2 -26 5 -48 18 -53 26 -251 12 -271
-9 -12 -43 -16 -158 -21 -81 -3 -152 -9 -159 -14 -15 -9 -30 -120 -19 -132 4
-5 18 -3 31 4 16 9 75 15 166 17 l142 4 5 -23 c3 -13 7 -179 10 -369 2 -191 8
-361 14 -380 6 -19 18 -80 27 -135 9 -55 23 -126 31 -157 8 -32 14 -67 14 -79
0 -19 8 -43 39 -109 9 -19 10 39 6 255 -19 1036 -19 979 -3 993 11 9 46 12
119 10 l103 -3 26 -75 c40 -117 70 -170 131 -230 105 -104 257 -157 422 -147
l87 6 0 -41 c0 -23 -7 -66 -16 -97 -39 -139 -44 -159 -44 -176 0 -10 -6 -41
-14 -69 -22 -79 -76 -301 -123 -511 -34 -148 -60 -190 -74 -114 -3 19 -16 68
-28 109 -12 41 -26 91 -30 110 -5 19 -19 71 -31 115 -12 44 -28 103 -35 130
-7 28 -21 77 -30 110 -23 81 -45 165 -51 195 -3 14 -13 47 -21 74 -11 33 -13
66 -9 103 l6 54 -67 -7 c-38 -4 -71 -10 -76 -13 -4 -4 -2 -22 4 -39 14 -39 13
-45 -48 -287 -8 -33 -21 -85 -28 -115 -32 -129 -67 -268 -79 -315 -31 -113
-66 -256 -76 -308 -4 -21 -10 -40 -13 -43 -8 -8 -47 71 -47 95 0 11 -6 40 -13
63 -8 24 -22 79 -32 123 -9 44 -23 103 -30 130 -15 60 -32 128 -51 210 -8 33
-21 87 -30 120 -24 94 -35 186 -29 233 8 54 11 54 -165 12 -54 -13 -138 -34
-200 -50 -71 -18 -220 -94 -282 -144 -66 -53 -133 -134 -167 -203 -12 -26 -27
-56 -33 -67 -45 -85 -56 -279 -21 -357 26 -56 78 -118 112 -130 21 -8 28 -6
47 18 13 15 23 32 24 36 0 5 11 23 25 41 36 47 34 68 -7 61 -117 -19 -147 229
-46 383 15 24 28 45 28 48 0 12 75 73 79 63 2 -6 0 -14 -5 -18 -26 -19 -71
-113 -89 -189 -20 -80 -16 -136 11 -177 21 -32 33 -15 14 20 -14 27 -9 125 10
175 33 90 58 130 119 190 83 81 205 142 334 164 21 4 44 9 51 12 19 7 46 -23
46 -51 0 -14 6 -44 13 -67 8 -24 22 -79 32 -123 9 -44 23 -102 30 -130 13 -47
25 -99 61 -255 8 -36 22 -91 29 -122 16 -60 34 -137 55 -223 7 -27 19 -77 27
-110 22 -90 26 -141 14 -164 -14 -26 -8 -26 84 -9 64 12 76 23 54 45 -14 14
-8 65 21 168 12 44 26 98 30 120 5 22 18 76 30 120 12 44 26 98 30 120 7 40
19 85 46 179 8 26 14 55 14 64 0 8 6 38 14 66 36 125 45 163 48 190 4 36 23
44 38 17 6 -12 24 -72 40 -134 16 -61 36 -137 45 -167 9 -30 20 -73 24 -95 4
-22 12 -56 18 -75 13 -41 35 -119 58 -210 10 -36 23 -85 30 -110 21 -71 34
-142 32 -175 l-2 -30 70 3 c74 4 97 14 77 34 -15 15 -15 58 -1 95 6 15 14 46
19 68 8 37 22 99 55 235 73 300 75 317 59 392 -18 87 -18 146 0 228 25 111 64
193 121 253 15 15 36 56 47 90 28 89 38 105 73 127 18 11 43 30 56 43 37 36
54 39 80 10 13 -14 47 -36 74 -49 185 -88 408 94 349 284 -33 105 -148 182
-250 168 -63 -8 -150 -52 -179 -90 -33 -43 -55 -109 -55 -162 0 -36 -6 -51
-36 -84 -41 -45 -111 -88 -199 -121 -49 -19 -80 -23 -170 -23 -102 0 -116 2
-185 32 -119 50 -190 134 -245 286 -28 76 -25 296 5 393 55 182 181 320 350
385 63 25 237 25 300 0 69 -27 102 -47 136 -84 121 -129 22 -315 -156 -295
-35 4 -51 13 -77 41 -18 20 -33 45 -33 56 0 28 -11 25 -49 -14 l-34 -35 29
-34 c16 -19 49 -48 74 -66 38 -26 55 -31 103 -31 100 0 193 52 241 134 22 37
26 57 26 121 0 92 -24 141 -101 208 -44 39 -70 51 -169 86 -62 21 -168 22
-242 1z m772 -797 c53 -31 75 -71 75 -140 0 -54 -4 -66 -31 -100 -54 -67 -141
-91 -214 -58 -63 29 -90 72 -90 145 0 84 35 135 115 167 37 15 107 9 145 -14z"/>
<path d="M4703 3139 c-18 -5 -35 -14 -38 -19 -4 -6 -17 -4 -35 5 -16 8 -40 15
-55 15 l-25 0 0 -225 0 -225 39 0 40 0 3 166 3 166 35 29 c48 41 110 41 151 0
l29 -29 0 -165 0 -164 37 -6 c20 -4 39 -5 41 -2 2 2 5 78 5 169 2 156 3 167
24 187 15 16 38 24 77 27 51 4 57 2 86 -26 l30 -30 0 -171 0 -171 38 0 39 0
-4 108 c-8 243 -9 257 -29 291 -26 45 -80 71 -150 71 -41 0 -63 -5 -81 -20
-33 -25 -67 -25 -108 0 -39 24 -108 33 -152 19z"/>
<path d="M5849 3109 c-10 -6 -10 -13 0 -36 10 -22 14 -165 17 -635 3 -515 2
-614 -11 -650 -8 -24 -11 -46 -7 -50 6 -5 111 -28 131 -28 4 0 5 97 2 216 -4
254 0 276 65 332 115 102 274 64 313 -73 22 -78 27 -408 8 -476 -18 -60 -13
-69 39 -69 17 0 44 -3 60 -6 l29 -6 -3 244 c-1 134 -7 270 -14 303 -20 106
-71 176 -162 222 -43 22 -64 27 -136 27 -74 0 -91 -3 -131 -26 -34 -19 -50
-23 -58 -15 -8 8 -11 117 -11 364 l0 352 -37 6 c-74 12 -82 12 -94 4z"/>
<path d="M5426 3103 c-40 -10 -98 -58 -124 -102 -65 -112 -11 -265 119 -336
85 -46 200 -38 273 20 16 12 18 19 8 40 -14 31 -20 31 -78 0 -52 -28 -75 -30
-140 -14 -77 20 -156 122 -121 155 13 12 190 4 306 -15 36 -5 68 -8 73 -5 4 3
8 23 8 45 0 113 -123 220 -250 218 -30 -1 -64 -4 -74 -6z m156 -74 c66 -34
100 -77 75 -97 -7 -5 -49 -5 -97 -1 -47 4 -101 8 -121 8 -19 1 -43 7 -53 14
-16 12 -17 16 -5 36 17 29 83 60 127 61 18 0 51 -9 74 -21z"/>
<path d="M6623 2565 c-29 -20 -29 -54 -2 -89 26 -33 81 -36 102 -5 38 54 -46
133 -100 94z"/>
<path d="M4980 2540 c-56 -9 -126 -39 -165 -72 -17 -14 -40 -28 -52 -32 -20
-7 -22 -3 -25 46 l-3 53 -60 3 -60 3 2 -368 2 -368 68 0 c67 0 68 0 65 25 -11
78 -12 321 -2 370 21 100 112 194 214 221 37 10 58 9 114 -7 21 -6 22 -4 22
47 0 30 -4 59 -8 65 -10 16 -60 23 -112 14z"/>
<path d="M4065 2533 c-63 -17 -153 -70 -197 -116 -187 -195 -145 -491 87 -604
150 -74 344 -41 471 79 36 34 67 76 87 118 29 59 32 74 32 160 0 88 -2 100
-34 163 -39 78 -96 134 -180 174 -48 23 -70 28 -151 30 -52 1 -104 -1 -115 -4z
m230 -138 c115 -68 166 -211 116 -326 -42 -95 -118 -155 -228 -180 -44 -10
-59 -9 -123 10 -143 44 -209 155 -178 301 20 97 112 198 202 221 59 15 161 3
211 -26z"/>
<path d="M5292 2510 c-53 -11 -94 -40 -123 -86 -34 -55 -32 -161 4 -208 31
-40 116 -83 190 -97 126 -22 239 -58 271 -87 35 -30 37 -98 3 -130 -35 -33
-108 -45 -194 -32 -71 11 -206 58 -248 87 -27 18 -31 17 -54 -21 -34 -54 -28
-70 37 -104 109 -56 194 -76 332 -76 110 -1 130 2 166 21 106 56 150 168 108
269 -31 75 -98 112 -269 149 -136 30 -189 48 -217 74 -49 44 -33 103 39 140
45 23 164 8 310 -40 34 -12 67 -18 73 -14 10 6 50 78 50 90 0 3 -8 5 -17 5
-10 0 -35 6 -58 14 -105 37 -157 47 -255 51 -58 2 -124 0 -148 -5z"/>
<path d="M6600 2318 c0 -8 5 -19 10 -24 13 -13 9 -640 -3 -666 -7 -14 0 -20
47 -33 95 -28 88 -58 86 345 0 278 -4 358 -14 368 -7 7 -38 16 -69 19 -46 5
-57 3 -57 -9z"/>
<path d="M6835 2259 c13 -55 18 -1338 5 -1381 -26 -89 -173 -204 -300 -234
-65 -16 -170 -18 -170 -4 0 6 6 10 13 11 30 1 -33 18 -73 18 -92 2 -358 76
-525 146 -88 37 -125 57 -120 66 4 5 30 9 58 9 29 0 63 6 77 13 55 29 61 28
72 -3 10 -30 14 -32 89 -34 l22 -1 -2 330 c-2 370 1 355 -75 355 l-41 0 3
-233 3 -233 -34 -35 c-26 -26 -52 -40 -102 -54 -63 -17 -71 -17 -119 -1 -56
17 -88 44 -105 89 -7 17 -11 121 -11 261 0 175 -3 236 -12 244 -7 5 -37 13
-67 17 l-54 7 8 -28 c5 -16 11 -141 14 -279 5 -211 9 -255 23 -280 23 -40 8
-55 -31 -32 -16 9 -36 17 -44 17 -7 0 -28 7 -45 15 -39 20 -157 32 -166 17 -4
-7 11 -13 41 -16 27 -4 66 -11 88 -17 22 -6 60 -15 85 -22 25 -6 47 -14 50
-18 3 -3 21 -11 40 -18 19 -7 76 -34 125 -61 111 -60 336 -171 390 -192 22 -9
58 -23 80 -31 40 -16 92 -31 214 -62 96 -25 317 -23 396 3 88 30 122 49 171
99 l43 45 53 -8 c29 -5 57 -8 62 -9 4 0 7 181 7 403 -2 367 -1 402 14 402 10
0 29 -8 43 -19 68 -47 133 -66 232 -66 87 0 99 3 138 28 46 30 96 99 113 157
6 20 9 85 7 145 -3 99 -7 117 -36 177 -60 125 -176 223 -304 258 -44 11 -104
10 -174 -5 -28 -6 -34 -4 -46 21 -9 21 -23 31 -48 35 -19 4 -46 11 -59 15 -23
7 -23 6 -16 -27z m406 -177 c139 -65 203 -209 168 -373 -36 -169 -246 -196
-399 -51 l-40 39 0 169 c0 189 3 199 68 234 51 28 119 22 203 -18z"/>
<path d="M667 2163 c-20 -19 0 -55 73 -132 44 -46 80 -88 80 -94 0 -5 -15 -6
-37 -2 -25 4 -77 37 -153 93 -148 112 -220 135 -220 70 0 -17 105 -128 123
-128 4 0 7 -7 7 -15 0 -8 -9 -15 -20 -15 -11 0 -20 3 -20 8 0 9 -94 72 -133
89 -44 19 -70 -1 -64 -49 5 -34 2 -39 -29 -57 -19 -11 -34 -27 -34 -35 0 -29
101 -87 350 -200 76 -35 174 -96 280 -175 84 -63 106 -77 135 -90 11 -5 37
-21 58 -35 21 -14 42 -26 47 -26 18 0 230 -212 236 -235 3 -13 25 -37 49 -54
25 -18 50 -37 57 -44 22 -21 168 -117 178 -117 17 0 11 17 -11 32 -19 12 -20
17 -10 36 6 12 16 22 22 22 13 0 120 81 180 138 l47 43 64 -43 c176 -118 358
-193 584 -242 98 -22 410 -22 480 -1 27 8 57 15 67 15 11 0 33 6 50 14 18 8
41 16 52 19 43 12 96 34 107 45 7 7 20 12 29 12 10 0 21 5 24 11 4 5 17 14 30
19 27 10 54 50 33 49 -7 0 -26 -9 -43 -19 -16 -10 -50 -29 -75 -40 -25 -12
-58 -28 -73 -36 -16 -8 -37 -14 -47 -14 -9 0 -33 -6 -51 -14 -66 -26 -245 -39
-365 -26 -107 11 -130 16 -269 60 -150 46 -344 160 -478 279 -37 34 -70 61
-72 61 -3 0 -31 -20 -64 -45 -53 -41 -111 -60 -111 -37 0 5 -29 30 -66 56 -97
72 -159 131 -197 189 -67 104 -80 176 -52 292 8 33 15 92 15 131 0 77 7 90 57
103 35 9 41 36 12 51 -36 20 -118 15 -138 -6 -16 -17 -40 -69 -54 -115 -8 -26
-76 -52 -149 -57 -56 -4 -74 -1 -109 17 -45 24 -136 90 -208 153 -89 77 -154
111 -174 91z"/>
<path d="M4887 1784 c-4 -4 -7 -139 -7 -301 l0 -293 30 0 30 0 0 123 c1 137 8
155 75 183 29 12 44 13 70 4 46 -15 55 -48 55 -192 0 -114 1 -119 23 -127 12
-5 25 -7 30 -4 4 2 7 63 7 134 0 170 -19 219 -92 240 -49 14 -80 11 -121 -10
-27 -14 -39 -16 -42 -8 -3 7 -6 66 -7 132 -3 112 -4 120 -23 123 -12 2 -24 0
-28 -4z"/>
<path d="M8135 1620 c-73 -72 -149 -137 -169 -145 -48 -20 -133 -19 -175 3
-21 10 -43 33 -55 57 -27 54 -53 75 -93 75 -40 0 -93 -25 -93 -44 0 -8 15 -17
34 -20 44 -8 52 -19 65 -86 26 -131 31 -151 41 -169 15 -30 12 -120 -7 -171
-9 -25 -32 -69 -51 -98 -41 -63 -202 -227 -232 -237 -14 -5 -31 1 -53 17 -18
14 -37 28 -44 31 -7 5 -42 -18 -85 -55 -40 -35 -99 -81 -130 -102 -57 -39 -71
-62 -44 -72 18 -7 213 98 236 127 19 24 49 16 113 -30 37 -27 88 -59 112 -71
71 -34 63 -54 -52 -130 -125 -82 -277 -160 -373 -189 -41 -13 -88 -27 -105
-32 -48 -16 -192 -40 -290 -50 -49 -4 -114 -11 -143 -15 -33 -4 -69 -2 -95 6
-23 7 -64 19 -92 28 -27 8 -79 28 -115 45 -36 16 -81 37 -100 46 -81 37 -181
110 -262 193 -89 89 -109 102 -63 42 14 -18 25 -36 25 -41 0 -13 99 -115 160
-164 60 -50 132 -95 195 -123 22 -9 49 -22 60 -27 110 -51 385 -91 498 -73 61
11 43 21 -49 29 -47 4 -82 10 -79 13 4 4 70 7 148 7 101 0 162 5 212 17 39 10
106 26 150 37 90 22 138 38 177 57 14 8 34 14 43 14 9 0 23 7 31 15 9 8 24 15
33 15 10 0 24 7 31 15 7 8 21 15 31 15 10 0 21 5 24 11 4 5 17 14 28 20 28 12
53 27 98 62 20 15 42 27 48 27 7 0 14 7 17 15 4 8 11 15 16 15 12 0 87 56 106
79 19 23 14 41 -11 41 -13 0 -32 7 -43 15 -10 8 -29 15 -41 15 -12 0 -25 5
-28 11 -4 5 -18 14 -31 19 -32 12 -33 44 -1 34 12 -3 29 -13 38 -20 8 -8 23
-14 31 -14 9 0 21 -7 28 -15 7 -8 21 -15 32 -15 10 0 37 -9 59 -20 44 -23 43
-30 -5 -70 -17 -14 -38 -33 -48 -43 -10 -9 -22 -17 -27 -17 -5 0 -11 -7 -15
-15 -3 -8 -11 -15 -18 -15 -8 0 -28 -13 -46 -30 -18 -16 -39 -30 -47 -30 -8 0
-18 -6 -22 -14 -4 -8 -17 -15 -27 -17 -27 -5 -33 -29 -7 -29 11 0 23 4 26 10
3 5 27 20 53 33 108 52 305 199 300 223 -2 9 -34 28 -73 43 -89 36 -92 50 -31
130 25 33 46 63 46 68 0 17 77 92 155 151 44 33 119 96 167 140 89 83 167 143
228 176 62 34 225 144 244 164 23 27 17 55 -14 62 -20 5 -26 13 -30 45 -8 67
-56 62 -139 -15 -49 -46 -71 -55 -71 -28 0 5 20 30 44 55 50 50 60 74 41 99
-20 27 -62 4 -157 -88 -91 -87 -153 -132 -169 -122 -15 9 -7 24 56 107 62 82
70 117 29 117 -19 0 -58 -32 -159 -130z"/>
<path d="M4414 1715 c-4 -9 0 -23 9 -32 21 -21 49 -9 45 19 -4 28 -45 38 -54
13z"/>
<path d="M4636 1676 c9 -74 1 -99 -36 -113 -37 -14 -38 -30 -2 -46 15 -6 30
-16 34 -22 4 -5 8 -70 8 -142 0 -129 1 -133 24 -148 16 -11 41 -15 73 -13 44
3 48 5 48 28 0 22 -4 25 -37 25 -20 0 -40 4 -45 8 -4 5 -10 57 -11 117 -4 110
7 157 32 147 20 -8 40 9 33 27 -4 9 -15 16 -26 16 -29 0 -41 30 -41 104 l0 66
-30 0 -30 0 6 -54z"/>
<path d="M4265 1550 c-13 -5 -25 -24 -32 -54 -18 -64 -72 -176 -86 -176 -7 0
-30 43 -51 95 -22 52 -43 95 -47 95 -13 0 -39 -31 -39 -45 0 -7 -7 -26 -15
-42 -8 -15 -22 -47 -32 -70 -9 -24 -23 -43 -30 -43 -8 0 -23 21 -34 48 -11 26
-24 56 -30 67 -5 11 -15 38 -22 60 -10 29 -20 41 -37 43 -40 6 -42 -12 -10
-76 16 -33 30 -64 30 -67 0 -4 7 -23 16 -43 8 -21 21 -50 28 -67 39 -91 47
-105 56 -105 6 0 13 8 16 18 3 9 12 31 20 47 7 17 24 54 36 83 33 76 51 68 98
-43 21 -49 42 -91 48 -93 8 -2 57 105 118 258 8 19 21 48 29 63 8 16 15 32 15
37 0 13 -23 18 -45 10z"/>
<path d="M4425 1548 c-3 -8 -4 -90 -3 -183 l3 -170 28 -3 27 -3 -2 183 c-3
181 -3 183 -26 186 -12 2 -24 -3 -27 -10z"/>
<path d="M6134 1471 c-53 -32 -77 -76 -77 -140 0 -103 61 -163 218 -211 199
-62 255 -97 255 -161 0 -69 -71 -101 -177 -79 -67 14 -99 27 -205 81 l-78 40
-20 -33 c-26 -44 -25 -53 9 -77 36 -26 174 -91 192 -91 8 0 32 -7 54 -15 62
-22 207 -20 255 5 52 27 88 75 90 125 6 96 2 111 -44 159 -49 50 -69 60 -241
117 -65 22 -128 45 -139 51 -32 17 -55 51 -56 80 0 36 51 78 94 78 56 0 231
-50 271 -77 28 -19 51 -16 67 10 26 40 29 57 10 63 -21 7 -90 34 -117 45 -118
52 -300 67 -361 30z"/>
<path d="M1263 1097 c-18 -6 -33 -13 -33 -16 1 -31 76 -81 110 -74 23 4 42 -5
104 -52 42 -32 95 -68 119 -81 49 -28 198 -101 242 -119 17 -7 47 -20 68 -29
21 -9 48 -16 60 -16 12 -1 33 -7 47 -15 29 -16 90 -20 90 -5 0 5 -12 12 -27
15 -16 4 -37 11 -48 17 -11 6 -33 15 -50 19 -59 15 -205 74 -245 100 -8 5 -21
11 -27 14 -37 15 -42 17 -123 69 -53 34 -201 145 -215 162 -16 18 -38 21 -72
11z"/>
<path d="M4826 1037 c8 -23 26 -26 88 -20 66 7 75 23 12 23 -24 0 -58 3 -75 6
-26 5 -30 4 -25 -9z"/>
<path d="M4712 995 c-7 -8 -23 -15 -36 -15 -13 0 -29 -7 -36 -15 -7 -8 -18
-15 -24 -15 -13 0 -66 -47 -66 -59 0 -20 16 -19 44 2 41 31 153 84 194 92 17
4 32 11 32 16 0 15 -94 10 -108 -6z"/>
<path d="M4320 700 c0 -7 24 -20 36 -20 13 0 1 19 -16 23 -11 3 -20 2 -20 -3z"/>
<path d="M6860 683 c-8 -3 -23 -15 -32 -27 -65 -79 64 -209 145 -146 73 58
-23 206 -113 173z"/>
<path d="M4370 670 c0 -5 12 -12 28 -16 15 -3 41 -12 59 -20 35 -16 93 -19 93
-5 0 11 -35 21 -73 21 -16 0 -35 7 -43 15 -17 17 -64 21 -64 5z"/>
<path d="M4920 660 c0 -13 20 -13 40 0 12 8 9 10 -12 10 -16 0 -28 -4 -28 -10z"/>
<path d="M4833 643 c-13 -2 -23 -9 -23 -14 0 -5 10 -9 23 -9 33 0 67 11 67 21
0 9 -27 10 -67 2z"/>
<path d="M4567 609 c15 -15 201 -15 216 0 8 8 -22 11 -108 11 -88 0 -116 -3
-108 -11z"/>
<path d="M6780 520 c-12 -8 -12 -10 2 -15 19 -7 38 1 38 16 0 12 -21 11 -40
-1z"/>
<path d="M7530 370 c-12 -8 -11 -10 8 -10 12 0 22 5 22 10 0 13 -11 13 -30 0z"/>
</g>
</svg>
