<?xml version="1.0" standalone="no"?>
<!DOCTYPE svg PUBLIC "-//W3C//DTD SVG 20010904//EN"
 "http://www.w3.org/TR/2001/REC-SVG-20010904/DTD/svg10.dtd">
<svg version="1.0" xmlns="http://www.w3.org/2000/svg"
 width="300.000000pt" height="142.000000pt" viewBox="0 0 300.000000 142.000000"
 preserveAspectRatio="xMidYMid meet">
<metadata>
Created by potrace 1.10, written by Peter Selinger 2001-2011
</metadata>
<g transform="translate(0.000000,142.000000) scale(0.100000,-0.100000)"
fill="#9b59b6" stroke="none">
<path d="M1154 1271 c-68 -31 -134 -126 -134 -195 0 -12 -10 -16 -40 -16 l-40
0 0 54 c0 52 -1 54 -30 58 -25 4 -30 2 -24 -11 4 -9 9 -36 12 -61 l4 -45 -59
0 c-55 0 -58 -1 -61 -25 -3 -26 -3 -26 58 -20 l60 6 0 -117 c0 -108 27 -300
45 -318 4 -3 4 93 0 214 l-8 221 41 1 c38 2 41 0 47 -29 16 -71 119 -139 190
-126 14 3 25 2 25 -2 0 -7 -49 -217 -76 -330 -5 -18 -18 19 -50 139 -25 92
-42 173 -38 184 5 16 3 19 -11 14 -9 -4 -23 -7 -31 -7 -10 0 -13 -6 -10 -17 3
-10 -15 -97 -39 -193 -35 -143 -44 -170 -50 -145 -4 17 -20 83 -36 147 -16 64
-29 131 -29 148 0 28 -2 30 -27 24 -156 -35 -211 -67 -249 -147 -32 -69 -31
-117 2 -157 l27 -31 24 35 c22 34 23 37 8 60 -37 56 25 148 119 180 27 9 50
15 51 13 11 -21 94 -410 89 -418 -5 -9 0 -10 17 -6 13 4 28 7 32 7 5 0 5 4 2
10 -3 5 12 83 35 173 22 91 40 172 40 182 0 40 14 -2 55 -158 26 -103 39 -171
34 -184 -4 -11 -30 -30 -60 -42 -78 -34 -199 -28 -289 15 -36 17 -82 45 -102
63 -36 31 -38 32 -63 15 -27 -18 -30 -17 -88 35 -48 43 -59 74 -51 143 5 47
11 62 25 65 27 7 13 23 -21 23 -21 0 -31 -6 -36 -22 -16 -54 -70 -51 -148 7
-33 25 -63 45 -68 45 -19 0 -6 -30 23 -55 50 -42 27 -39 -37 5 -32 22 -62 40
-66 40 -18 0 -6 -31 17 -46 14 -9 25 -20 25 -26 0 -5 -17 2 -37 16 -36 25 -59
25 -49 1 2 -7 -2 -16 -11 -19 -23 -9 -3 -28 59 -56 77 -35 239 -144 282 -190
21 -23 55 -52 77 -67 21 -14 39 -27 39 -29 0 -12 -24 1 -68 35 -35 28 -53 36
-63 30 -11 -8 -10 -12 6 -21 11 -7 26 -13 33 -14 8 -2 21 -9 30 -17 30 -26
137 -75 201 -92 69 -18 96 -14 34 5 -87 26 -152 53 -150 60 1 5 -7 16 -18 24
-19 15 -19 17 -2 27 9 5 29 20 44 33 l27 23 45 -27 c147 -90 375 -94 461 -8
16 15 36 28 45 28 9 0 14 4 11 9 -4 5 7 63 22 128 19 79 26 128 21 146 -10 36
11 116 39 152 12 15 22 33 22 40 0 6 11 22 24 34 23 22 26 22 48 7 82 -57 184
49 113 119 -48 49 -129 18 -144 -55 -14 -72 -140 -105 -212 -57 -52 34 -71 79
-67 158 3 52 9 75 31 107 49 75 147 103 214 63 40 -25 50 -54 29 -86 -27 -41
-104 -28 -89 14 5 13 2 12 -15 -3 l-22 -19 22 -24 c48 -51 138 -12 138 59 0
88 -106 134 -206 89z m-222 -236 c0 -5 -5 -11 -11 -13 -6 -2 -11 4 -11 13 0 9
5 15 11 13 6 -2 11 -8 11 -13z m528 -30 c20 -24 8 -69 -23 -83 -24 -12 -31
-11 -53 2 -51 34 -12 114 48 98 10 -2 22 -10 28 -17z m-400 -242 c0 -19 -13
-9 -16 12 -1 8 2 13 7 9 5 -3 9 -12 9 -21z m-387 -45 c-45 -49 -57 -113 -28
-142 11 -11 12 -17 4 -22 -15 -9 -39 23 -39 53 0 43 52 133 77 133 4 0 -3 -10
-14 -22z m-480 -79 c11 8 21 8 43 -4 24 -12 31 -12 50 0 18 12 23 11 37 -3 17
-16 72 -21 112 -10 18 5 20 2 17 -41 -5 -59 20 -104 83 -151 l45 -34 -26 -23
c-15 -13 -29 -23 -31 -23 -2 0 -34 30 -72 68 -64 62 -128 108 -241 172 -25 14
-47 26 -50 27 -28 9 -39 16 -35 24 3 4 17 3 30 -3 18 -8 28 -8 38 1z m977
-153 c-5 -13 -8 -26 -7 -28 1 -2 -4 3 -10 11 -15 17 -17 35 -4 26 5 -3 12 -1
16 5 11 18 15 10 5 -14z m-220 -36 c0 -11 -4 -20 -10 -20 -5 0 -10 9 -10 20 0
11 5 20 10 20 6 0 10 -9 10 -20z"/>
<path d="M1572 1051 c-7 -4 -23 -6 -35 -4 -21 4 -22 2 -19 -71 3 -58 7 -76 18
-76 10 0 14 15 14 60 0 56 2 60 26 66 36 9 45 -9 42 -78 -3 -49 -1 -56 15 -55
14 1 17 11 17 63 0 54 3 64 20 69 37 12 52 -12 48 -77 -2 -48 0 -58 13 -58 14
0 16 10 12 68 -3 37 -10 73 -16 80 -11 14 -63 16 -72 2 -4 -6 -17 -4 -35 5
-34 17 -31 17 -48 6z"/>
<path d="M1949 1031 c9 -15 11 -86 9 -236 -3 -207 -2 -214 17 -219 11 -3 22
-6 25 -6 3 0 4 37 2 83 -3 73 -1 85 17 101 25 23 67 24 89 2 22 -21 31 -169
12 -191 -10 -12 -9 -15 8 -15 11 0 26 -2 34 -5 10 -4 12 14 8 97 -6 107 -17
140 -50 158 -27 15 -88 16 -102 2 -7 -7 -14 -12 -17 -12 -4 0 -5 56 -3 125 3
105 1 125 -12 125 -8 0 -22 3 -31 7 -15 5 -16 3 -6 -16z"/>
<path d="M1782 1017 c-61 -65 29 -169 109 -127 27 15 24 34 -3 25 -51 -15 -98
0 -98 33 0 12 11 14 65 8 61 -6 65 -5 65 14 0 12 -11 32 -25 45 -32 33 -83 34
-113 2z m89 -7 c34 -18 21 -30 -31 -29 -52 2 -62 11 -32 28 22 13 39 13 63 1z"/>
<path d="M2204 855 c-8 -20 4 -35 27 -35 21 0 25 20 7 38 -16 16 -27 15 -34
-3z"/>
<path d="M1334 840 c-30 -12 -71 -64 -79 -100 -20 -93 74 -172 168 -141 107
36 130 179 37 234 -30 18 -91 21 -126 7z m107 -43 c45 -34 50 -85 12 -127 -37
-40 -78 -47 -120 -21 -29 18 -33 26 -33 63 0 56 38 98 89 98 20 0 43 -6 52
-13z"/>
<path d="M1535 725 l0 -125 33 0 c28 0 31 3 24 18 -6 9 -9 43 -8 74 1 49 6 62
31 89 25 25 36 30 61 26 28 -5 32 -3 32 19 0 20 -5 24 -33 24 -18 0 -44 -9
-58 -20 -14 -11 -28 -20 -32 -20 -3 0 -3 9 0 20 5 17 2 20 -22 20 l-28 0 0
-125z"/>
<path d="M1760 839 c-31 -13 -40 -26 -40 -65 0 -40 10 -48 95 -71 63 -16 70
-21 70 -43 0 -23 -4 -25 -47 -28 -29 -2 -59 3 -78 13 -33 17 -50 13 -50 -11 0
-22 65 -45 128 -47 48 -1 57 2 78 26 49 57 16 106 -84 126 -65 13 -84 30 -62
56 15 18 53 19 103 1 35 -13 38 -12 48 6 6 11 8 22 5 26 -3 3 -6 3 -6 0 0 -3
-26 1 -57 8 -67 16 -70 16 -103 3z"/>
<path d="M2205 659 l0 -127 28 -5 c21 -3 27 0 22 10 -3 8 -5 65 -5 128 0 109
-1 113 -22 117 -23 4 -23 4 -23 -123z"/>
<path d="M2279 752 c7 -13 11 -100 11 -235 0 -205 -1 -216 -22 -242 -25 -32
-92 -65 -128 -64 -23 1 -22 2 5 8 24 6 16 8 -42 14 -40 4 -105 19 -145 34
l-73 27 35 7 c21 5 37 3 41 -3 4 -6 19 -8 34 -5 16 3 45 -3 69 -14 51 -23 119
-25 140 -3 22 22 20 71 -4 92 -11 9 -44 24 -72 33 -58 18 -83 43 -58 60 17 11
61 5 100 -15 24 -11 28 -11 39 5 13 22 14 32 2 25 -5 -3 -25 1 -45 9 -52 22
-123 20 -136 -4 -26 -50 -6 -78 83 -111 64 -24 81 -45 52 -66 -21 -16 -56 -10
-104 18 -18 10 -35 18 -36 16 -1 -2 -7 -12 -13 -23 -9 -16 -11 4 -12 91 0 108
-1 112 -22 116 -22 4 -23 2 -23 -81 0 -84 -1 -86 -28 -99 -19 -9 -36 -11 -55
-4 -27 8 -27 10 -30 105 -3 93 -4 97 -25 97 -21 0 -22 -3 -19 -92 2 -51 9 -99
15 -107 10 -11 9 -13 -3 -8 -70 28 -127 39 -174 32 -57 -7 -136 -39 -136 -54
0 -21 20 -20 57 1 32 19 52 23 128 23 89 0 92 -1 210 -57 140 -66 179 -78 260
-78 61 0 125 26 125 51 0 6 7 8 15 5 8 -3 21 -8 28 -11 9 -4 11 25 7 132 -3
76 -4 139 -3 141 1 2 13 -4 27 -13 15 -10 45 -18 67 -19 33 -1 46 5 65 27 30
35 33 106 5 157 -24 45 -94 83 -138 75 -17 -3 -33 -2 -35 3 -1 5 -14 13 -26
17 -21 6 -23 5 -13 -13z m142 -58 c53 -27 73 -122 32 -155 -19 -17 -67 -13
-97 6 -23 16 -26 24 -26 79 0 86 25 105 91 70z m-764 -340 c-3 -3 -12 -4 -19
-1 -8 3 -5 6 6 6 11 1 17 -2 13 -5z m-50 -10 c-3 -3 -12 -4 -19 -1 -8 3 -5 6
6 6 11 1 17 -2 13 -5z m-38 -7 c-2 -2 -17 -11 -34 -21 l-30 -17 24 20 c13 12
28 21 34 21 6 0 8 -1 6 -3z"/>
<path d="M1625 500 c0 -71 3 -100 12 -100 7 0 13 19 15 48 3 43 5 47 30 50 24
3 28 -1 33 -32 4 -19 4 -44 0 -55 -5 -15 -2 -21 9 -21 13 0 16 12 16 55 0 47
-3 57 -24 70 -19 13 -29 14 -45 5 -20 -10 -21 -8 -21 35 0 29 -4 45 -12 45
-10 0 -13 -27 -13 -100z"/>
<path d="M1476 583 c-11 -11 -6 -23 9 -23 8 0 15 4 15 9 0 13 -16 22 -24 14z"/>
<path d="M2710 540 c-59 -59 -99 -67 -126 -25 -16 25 -48 33 -58 16 -3 -5 0
-11 7 -14 8 -3 20 -32 26 -65 15 -70 7 -94 -57 -155 -34 -33 -40 -36 -51 -23
-12 14 -18 11 -54 -19 -22 -19 -45 -35 -49 -35 -5 0 -6 -5 -3 -10 4 -7 23 -2
52 14 l45 26 39 -23 c21 -12 39 -25 39 -28 0 -13 -97 -69 -151 -87 -30 -11
-76 -22 -104 -26 -27 -4 -63 -9 -80 -12 -23 -4 -27 -3 -15 6 12 8 10 9 -10 5
-40 -9 -158 54 -210 111 -28 32 -37 39 -25 19 62 -105 179 -167 309 -163 l61
1 -50 7 -50 7 65 2 c36 1 83 6 105 12 22 6 56 12 76 14 20 1 51 10 70 20 47
23 159 98 159 107 0 3 -13 9 -30 13 -16 4 -30 10 -30 14 0 31 113 135 233 215
61 42 83 66 57 66 -5 0 -10 7 -10 15 0 21 -24 19 -45 -5 -10 -11 -23 -20 -28
-20 -6 0 2 13 17 29 47 49 10 46 -46 -4 -56 -50 -75 -53 -34 -5 14 17 26 36
26 41 0 20 -22 7 -70 -41z m150 -35 c-7 -8 -16 -15 -21 -15 -26 0 -229 -173
-229 -195 0 -20 -25 -36 -37 -24 -8 8 -17 7 -32 -2 l-20 -13 25 -27 c22 -23
23 -27 9 -39 -13 -11 -15 -10 -10 2 4 9 -4 21 -19 32 -33 21 -33 33 -1 58 42
33 67 94 63 149 -4 43 -3 47 13 38 28 -15 54 -11 84 13 21 16 31 19 44 11 12
-8 22 -7 36 4 11 7 30 11 42 8 12 -3 25 -1 28 5 3 5 13 10 22 10 13 0 13 -3 3
-15z m-272 -265 c23 -11 42 -24 42 -28 0 -10 -119 -89 -153 -102 -50 -18 -44
-10 18 23 98 53 138 87 101 87 -13 0 -67 39 -55 40 3 0 24 -9 47 -20z"/>
<path d="M1548 555 c3 -18 0 -25 -12 -25 -9 0 -16 -4 -16 -10 0 -5 7 -10 15
-10 12 0 15 -13 15 -55 0 -52 1 -55 25 -55 14 0 25 5 25 10 0 6 -7 10 -15 10
-11 0 -15 12 -15 45 0 25 5 45 10 45 6 0 10 5 10 11 0 5 -4 7 -10 4 -6 -4 -10
7 -10 24 0 20 -5 31 -14 31 -9 0 -12 -8 -8 -25z"/>
<path d="M1414 513 c-3 -10 -11 -31 -18 -48 l-13 -30 -12 38 c-7 20 -16 37
-20 37 -4 0 -13 -16 -20 -35 -15 -42 -28 -38 -37 10 -4 25 -11 35 -25 35 -18
0 -18 -3 6 -50 14 -27 25 -56 25 -65 0 -27 18 -16 31 20 16 44 24 44 39 -1 7
-19 15 -33 18 -30 3 3 18 35 33 71 21 50 24 65 13 65 -8 0 -17 -8 -20 -17z"/>
<path d="M1475 465 c0 -45 4 -65 13 -65 8 0 12 20 12 65 0 45 -4 65 -12 65 -9
0 -13 -20 -13 -65z"/>
<path d="M1310 352 c0 -6 27 -35 60 -65 117 -109 246 -115 367 -18 50 40 39
46 -12 7 -118 -91 -252 -78 -366 36 -27 27 -49 45 -49 40z"/>
<path d="M2274 215 c-3 -8 -3 -18 0 -23 3 -6 -20 -17 -52 -25 -31 -8 -46 -15
-32 -16 14 0 42 6 62 13 26 9 40 10 47 3 8 -8 16 -7 27 5 13 12 14 20 5 37
-13 24 -49 28 -57 6z"/>
</g>
</svg>
